<?xml version="1.0" encoding="UTF-8"?>
<!DOCTYPE svg PUBLIC "-//W3C//DTD SVG 1.1//EN" "http://www.w3.org/Graphics/SVG/1.1/DTD/svg11.dtd">
<svg xmlns="http://www.w3.org/2000/svg" version="1.1" width="512px" height="512px" style="shape-rendering:geometricPrecision; text-rendering:geometricPrecision; image-rendering:optimizeQuality; fill-rule:evenodd; clip-rule:evenodd" xmlns:xlink="http://www.w3.org/1999/xlink">
<g><path style="opacity:0.964" fill="#000000" d="M 239.5,15.5 C 294.148,11.2955 336.314,31.9622 366,77.5C 384.26,109.658 388.593,143.658 379,179.5C 361.55,231.618 325.717,262.118 271.5,271C 216.832,275.693 174.665,255.193 145,209.5C 126.74,177.342 122.407,143.342 132,107.5C 149.618,55.3708 185.452,24.7041 239.5,15.5 Z M 254.5,47.5 C 296.559,49.4348 326.392,69.4348 344,107.5C 359.329,154.505 347.495,193.005 308.5,223C 273.162,244.996 237.829,244.996 202.5,223C 163.503,193 151.669,154.5 167,107.5C 184.398,70.2591 213.565,50.2591 254.5,47.5 Z"/></g>
<g><path style="opacity:0.977" fill="#000000" d="M 174.5,286.5 C 178.182,286.335 181.848,286.501 185.5,287C 232.167,307.667 278.833,307.667 325.5,287C 328.833,286.333 332.167,286.333 335.5,287C 384.599,307.431 420.765,341.598 444,389.5C 458.415,419.906 464.748,451.906 463,485.5C 461.167,490 458,493.167 453.5,495C 321.5,495.667 189.5,495.667 57.5,495C 53,493.167 49.8333,490 48,485.5C 46.9809,408.699 77.8142,348.533 140.5,305C 151.513,298.132 162.846,291.966 174.5,286.5 Z M 178.5,321.5 C 188.082,324.414 197.749,327.247 207.5,330C 249.381,339.67 290.381,336.837 330.5,321.5C 381.625,346.484 413.792,386.817 427,442.5C 428.576,449.445 429.743,456.445 430.5,463.5C 313.833,463.5 197.167,463.5 80.5,463.5C 88.9847,399.114 121.651,351.781 178.5,321.5 Z"/></g>
</svg>
