<!-- icon666.com - MILLIONS vector ICONS FREE --><svg viewBox="0 0 64 64" xmlns="http://www.w3.org/2000/svg"><g id="Calendar"><path d="m52 56.42 7.42-7.42h-7.42z" fill="#000000" style="fill: rgb(217, 217, 217);"></path><path d="m55 13h-4v-2a4 4 0 0 0 -8 0v2h-7v-2a4 4 0 0 0 -8 0v2h-7v-2a4 4 0 0 0 -8 0v2h-4a5.0018 5.0018 0 0 0 -5 5v34a5.0018 5.0018 0 0 0 5 5h41v-9a1.0029 1.0029 0 0 1 1-1h9v-29a5.0018 5.0018 0 0 0 -5-5zm-10-2a2 2 0 0 1 4 0v2h-4zm-15 0a2 2 0 0 1 4 0v2h-4zm-15 0a2 2 0 0 1 4 0v2h-4zm1 39h-4v-4h4zm0-8h-4v-4h4zm0-8h-4v-4h4zm9 16h-4v-4h4zm0-8h-4v-4h4zm0-8h-4v-4h4zm9 16h-4v-4h4zm0-8h-4v-4h4zm0-8h-4v-4h4zm9 16h-4v-4h4zm0-8h-4v-4h4zm0-8h-4v-4h4zm9 8h-4v-4h4zm0-8h-4v-4h4zm6-11h-52v-5a3.0088 3.0088 0 0 1 3-3h4v2a4 4 0 0 0 8 0h-2a2 2 0 0 1 -4 0v-2h13v2a4 4 0 0 0 8 0h-2a2 2 0 0 1 -4 0v-2h13v2a4 4 0 0 0 8 0h-2a2 2 0 0 1 -4 0v-2h10a3.0088 3.0088 0 0 1 3 3z" fill="#000000" style="fill: rgb(217, 217, 217);"></path></g></svg>