<?xml version="1.0" standalone="no"?>
<!DOCTYPE svg PUBLIC "-//W3C//DTD SVG 20010904//EN"
 "http://www.w3.org/TR/2001/REC-SVG-20010904/DTD/svg10.dtd">
<svg version="1.0" xmlns="http://www.w3.org/2000/svg"
 width="480.000000pt" height="480.000000pt" viewBox="0 0 480.000000 480.000000"
 preserveAspectRatio="xMidYMid meet">
<metadata>
Created by potrace 1.16, written by Peter Selinger 2001-2019
</metadata>
<g transform="translate(0.000000,480.000000) scale(0.100000,-0.100000)"
fill="#000000" stroke="none">
<path d="M2050 4464 c-518 -62 -938 -266 -1285 -626 -173 -179 -279 -331 -386
-553 -399 -831 -186 -1846 514 -2450 268 -232 569 -383 917 -459 670 -147
1373 53 1872 533 106 101 248 269 248 292 -1 15 -96 89 -115 89 -5 0 -34 -31
-63 -70 -67 -87 -195 -217 -292 -296 -457 -372 -1056 -515 -1629 -388 -683
152 -1236 677 -1424 1354 -53 189 -62 266 -61 520 0 215 2 245 27 360 128 606
502 1086 1048 1350 668 322 1454 230 2033 -239 205 -166 385 -390 507 -633 44
-88 119 -278 119 -303 0 -12 -18 -15 -92 -16 -51 -1 -141 -4 -200 -8 l-108 -6
233 -399 c128 -219 237 -398 242 -398 9 -1 464 788 465 805 0 4 -83 7 -185 7
-140 0 -187 3 -189 13 -66 217 -156 419 -258 577 -317 492 -826 827 -1408 925
-91 16 -450 28 -530 19z"/>
<path d="M2123 3395 c-153 -33 -308 -154 -376 -295 -51 -102 -67 -187 -67
-352 l0 -138 -81 0 c-79 0 -82 -1 -115 -34 l-34 -34 0 -526 c0 -566 1 -574 51
-610 21 -14 94 -16 742 -16 797 0 769 -2 801 65 18 38 21 284 9 804 l-6 294
-28 31 c-26 29 -32 31 -112 34 l-85 4 -6 36 c-3 21 -6 89 -6 152 0 196 -42
303 -170 430 -142 143 -324 197 -517 155z m288 -182 c78 -36 136 -86 177 -151
49 -77 62 -138 62 -297 l0 -142 -242 -6 c-133 -4 -315 -7 -406 -7 l-164 0 4
168 c3 164 4 168 35 234 51 108 140 185 258 225 24 8 73 12 125 10 71 -2 97
-8 151 -34z m482 -980 c4 -124 7 -329 7 -454 l0 -229 -645 -2 -645 -3 0 452 0
453 483 3 c265 1 552 3 638 5 l156 2 6 -227z"/>
</g>
</svg>
