<?xml version="1.0" encoding="UTF-8"?>
<svg xmlns="http://www.w3.org/2000/svg" xmlns:xlink="http://www.w3.org/1999/xlink" width="32px" height="32px" viewBox="0 0 32 32" version="1.1">
<defs>
<filter id="alpha" filterUnits="objectBoundingBox" x="0%" y="0%" width="100%" height="100%">
  <feColorMatrix type="matrix" in="SourceGraphic" values="0 0 0 0 1 0 0 0 0 1 0 0 0 0 1 0 0 0 1 0"/>
</filter>
<mask id="mask0">
  <g filter="url(#alpha)">
<rect x="0" y="0" width="32" height="32" style="fill:rgb(0%,0%,0%);fill-opacity:0.968627;stroke:none;"/>
  </g>
</mask>
<clipPath id="clip1">
  <rect x="0" y="0" width="32" height="32"/>
</clipPath>
<g id="surface5" clip-path="url(#clip1)">
<path style=" stroke:none;fill-rule:evenodd;fill:rgb(0%,0%,0%);fill-opacity:1;" d="M 3.46875 1.96875 C 9.21875 1.957031 14.96875 1.96875 20.71875 2 C 21.542969 2.261719 22.03125 2.8125 22.1875 3.65625 C 22.230469 4.90625 22.230469 6.15625 22.1875 7.40625 C 22 7.773438 21.71875 7.867188 21.34375 7.6875 C 21.269531 7.632812 21.214844 7.558594 21.1875 7.46875 C 21.167969 6.238281 21.144531 5.011719 21.125 3.78125 C 21.019531 3.46875 20.820312 3.226562 20.53125 3.0625 C 15.011719 2.960938 9.492188 2.9375 3.96875 3 C 3.394531 3.074219 3.074219 3.394531 3 3.96875 C 2.957031 11.96875 2.957031 19.96875 3 27.96875 C 3.050781 28.457031 3.3125 28.78125 3.78125 28.9375 C 9.300781 28.980469 14.824219 28.980469 20.34375 28.9375 C 20.769531 28.84375 21.03125 28.582031 21.125 28.15625 C 21.144531 27.074219 21.167969 25.988281 21.1875 24.90625 C 21.398438 24.585938 21.679688 24.515625 22.03125 24.6875 C 22.089844 24.777344 22.144531 24.871094 22.1875 24.96875 C 22.230469 26.074219 22.230469 27.175781 22.1875 28.28125 C 21.988281 29.230469 21.417969 29.800781 20.46875 30 C 14.863281 30.042969 9.261719 30.042969 3.65625 30 C 2.78125 29.835938 2.230469 29.324219 2 28.46875 C 1.957031 20.136719 1.957031 11.800781 2 3.46875 C 2.210938 2.6875 2.699219 2.1875 3.46875 1.96875 Z M 3.46875 1.96875 "/>
</g>
<mask id="mask1">
  <g filter="url(#alpha)">
<rect x="0" y="0" width="32" height="32" style="fill:rgb(0%,0%,0%);fill-opacity:0.933333;stroke:none;"/>
  </g>
</mask>
<clipPath id="clip2">
  <rect x="0" y="0" width="32" height="32"/>
</clipPath>
<g id="surface8" clip-path="url(#clip2)">
<path style=" stroke:none;fill-rule:evenodd;fill:rgb(0%,0%,0%);fill-opacity:1;" d="M 26.21875 4.46875 C 28.039062 4.457031 29.0625 5.351562 29.28125 7.15625 C 29.257812 7.683594 29.109375 8.171875 28.84375 8.625 C 29.828125 9.144531 30.171875 9.945312 29.875 11.03125 C 28.707031 13.324219 27.542969 15.613281 26.375 17.90625 C 26.066406 18.148438 25.773438 18.128906 25.5 17.84375 C 25.375 17.636719 25.375 17.425781 25.5 17.21875 C 26.640625 15.042969 27.765625 12.855469 28.875 10.65625 C 29.003906 10.21875 28.871094 9.894531 28.46875 9.6875 C 28.398438 9.640625 28.335938 9.652344 28.28125 9.71875 C 25.996094 14.226562 23.691406 18.726562 21.375 23.21875 C 20.070312 24.210938 18.746094 25.179688 17.40625 26.125 C 17.078125 26.28125 16.816406 26.207031 16.625 25.90625 C 16.605469 25.28125 16.582031 24.65625 16.5625 24.03125 C 16.503906 22.921875 16.523438 21.820312 16.625 20.71875 C 19.144531 15.78125 21.667969 10.84375 24.1875 5.90625 C 24.632812 5.097656 25.308594 4.617188 26.21875 4.46875 Z M 26.34375 5.53125 C 27.449219 5.519531 28.074219 6.0625 28.21875 7.15625 C 28.179688 7.523438 28.054688 7.855469 27.84375 8.15625 C 26.921875 7.667969 25.996094 7.191406 25.0625 6.71875 C 25.257812 6.078125 25.683594 5.679688 26.34375 5.53125 Z M 24.46875 7.65625 C 25.402344 8.125 26.339844 8.59375 27.28125 9.0625 C 27.3125 9.097656 27.335938 9.140625 27.34375 9.1875 C 25.117188 13.523438 22.898438 17.867188 20.6875 22.21875 C 19.808594 21.761719 18.921875 21.316406 18.03125 20.875 C 17.953125 20.828125 17.890625 20.765625 17.84375 20.6875 C 20.078125 16.355469 22.285156 12.011719 24.46875 7.65625 Z M 17.59375 21.84375 C 18.34375 22.238281 19.09375 22.632812 19.84375 23.03125 C 19.128906 23.558594 18.410156 24.082031 17.6875 24.59375 C 17.601562 23.679688 17.570312 22.761719 17.59375 21.84375 Z M 17.59375 21.84375 "/>
</g>
<mask id="mask2">
  <g filter="url(#alpha)">
<rect x="0" y="0" width="32" height="32" style="fill:rgb(0%,0%,0%);fill-opacity:0.968627;stroke:none;"/>
  </g>
</mask>
<clipPath id="clip3">
  <rect x="0" y="0" width="32" height="32"/>
</clipPath>
<g id="surface11" clip-path="url(#clip3)">
<path style=" stroke:none;fill-rule:evenodd;fill:rgb(0%,0%,0%);fill-opacity:1;" d="M 5.40625 4.96875 C 9.84375 4.957031 14.28125 4.96875 18.71875 5 C 18.832031 5.03125 18.90625 5.105469 18.9375 5.21875 C 18.980469 6.761719 18.980469 8.300781 18.9375 9.84375 C 18.855469 10.007812 18.71875 10.101562 18.53125 10.125 C 14.152344 10.1875 9.777344 10.167969 5.40625 10.0625 C 5.332031 9.988281 5.261719 9.917969 5.1875 9.84375 C 5.144531 8.324219 5.144531 6.800781 5.1875 5.28125 C 5.25 5.167969 5.324219 5.0625 5.40625 4.96875 Z M 6.21875 5.96875 C 10.136719 5.96875 14.050781 5.96875 17.96875 5.96875 C 17.96875 7.011719 17.96875 8.050781 17.96875 9.09375 C 14.050781 9.09375 10.136719 9.09375 6.21875 9.09375 C 6.21875 8.050781 6.21875 7.011719 6.21875 5.96875 Z M 6.21875 5.96875 "/>
</g>
<mask id="mask3">
  <g filter="url(#alpha)">
<rect x="0" y="0" width="32" height="32" style="fill:rgb(0%,0%,0%);fill-opacity:0.937255;stroke:none;"/>
  </g>
</mask>
<clipPath id="clip4">
  <rect x="0" y="0" width="32" height="32"/>
</clipPath>
<g id="surface14" clip-path="url(#clip4)">
<path style=" stroke:none;fill-rule:evenodd;fill:rgb(0%,0%,0%);fill-opacity:1;" d="M 5.40625 12.21875 C 9.84375 12.207031 14.28125 12.21875 18.71875 12.25 C 18.988281 12.484375 19.039062 12.765625 18.875 13.09375 C 18.800781 13.179688 18.707031 13.234375 18.59375 13.25 C 14.261719 13.292969 9.925781 13.292969 5.59375 13.25 C 5.21875 13.144531 5.082031 12.90625 5.1875 12.53125 C 5.25 12.417969 5.324219 12.3125 5.40625 12.21875 Z M 5.40625 12.21875 "/>
</g>
<mask id="mask4">
  <g filter="url(#alpha)">
<rect x="0" y="0" width="32" height="32" style="fill:rgb(0%,0%,0%);fill-opacity:0.937255;stroke:none;"/>
  </g>
</mask>
<clipPath id="clip5">
  <rect x="0" y="0" width="32" height="32"/>
</clipPath>
<g id="surface17" clip-path="url(#clip5)">
<path style=" stroke:none;fill-rule:evenodd;fill:rgb(0%,0%,0%);fill-opacity:1;" d="M 5.46875 15.21875 C 9.050781 15.207031 12.636719 15.21875 16.21875 15.25 C 16.488281 15.484375 16.539062 15.765625 16.375 16.09375 C 16.300781 16.179688 16.207031 16.234375 16.09375 16.25 C 12.574219 16.292969 9.050781 16.292969 5.53125 16.25 C 5.152344 16.070312 5.058594 15.789062 5.25 15.40625 C 5.320312 15.335938 5.394531 15.273438 5.46875 15.21875 Z M 5.46875 15.21875 "/>
</g>
<mask id="mask5">
  <g filter="url(#alpha)">
<rect x="0" y="0" width="32" height="32" style="fill:rgb(0%,0%,0%);fill-opacity:0.933333;stroke:none;"/>
  </g>
</mask>
<clipPath id="clip6">
  <rect x="0" y="0" width="32" height="32"/>
</clipPath>
<g id="surface20" clip-path="url(#clip6)">
<path style=" stroke:none;fill-rule:evenodd;fill:rgb(0%,0%,0%);fill-opacity:1;" d="M 5.46875 18.21875 C 8.050781 18.207031 10.636719 18.21875 13.21875 18.25 C 13.652344 18.609375 13.628906 18.941406 13.15625 19.25 C 10.613281 19.292969 8.074219 19.292969 5.53125 19.25 C 5.269531 19.1875 5.144531 19.023438 5.15625 18.75 C 5.15625 18.507812 5.261719 18.328125 5.46875 18.21875 Z M 5.46875 18.21875 "/>
</g>
<mask id="mask6">
  <g filter="url(#alpha)">
<rect x="0" y="0" width="32" height="32" style="fill:rgb(0%,0%,0%);fill-opacity:0.92549;stroke:none;"/>
  </g>
</mask>
<clipPath id="clip7">
  <rect x="0" y="0" width="32" height="32"/>
</clipPath>
<g id="surface23" clip-path="url(#clip7)">
<path style=" stroke:none;fill-rule:evenodd;fill:rgb(0%,0%,0%);fill-opacity:1;" d="M 10.71875 25.15625 C 12.011719 25.144531 13.300781 25.15625 14.59375 25.1875 C 15.027344 25.550781 15.003906 25.882812 14.53125 26.1875 C 13.28125 26.230469 12.03125 26.230469 10.78125 26.1875 C 10.546875 26.101562 10.445312 25.933594 10.46875 25.6875 C 10.480469 25.59375 10.488281 25.5 10.5 25.40625 C 10.585938 25.332031 10.660156 25.246094 10.71875 25.15625 Z M 10.71875 25.15625 "/>
</g>
</defs>
<g id="surface1">
<use xlink:href="#surface5" mask="url(#mask0)"/>
<use xlink:href="#surface8" mask="url(#mask1)"/>
<use xlink:href="#surface11" mask="url(#mask2)"/>
<use xlink:href="#surface14" mask="url(#mask3)"/>
<use xlink:href="#surface17" mask="url(#mask4)"/>
<use xlink:href="#surface20" mask="url(#mask5)"/>
<use xlink:href="#surface23" mask="url(#mask6)"/>
</g>
</svg>
