<svg xmlns="http://www.w3.org/2000/svg" version="1.0" width="18" height="18" viewBox="0 0 512 512"><g fill="#d9d9d9"><path d="M42.6 3.6C23.7 8.2 8 24.1 3.5 43.2c-2.2 9.6-2.2 416.1 0 425.7 4.6 19.5 20.9 35.5 40.4 39.7 10.1 2.1 309.7 2.1 318.9-.1 17.4-4.1 31.4-16.6 38.3-34 2.2-5.6 2.3-7.5 2.7-32.3.4-28.8.1-31.2-4.9-33.7-5.6-2.9-12.7-.9-14.7 4.2-.7 1.7-1.2 12.6-1.4 27.8l-.3 25-2.8 5.2c-3.6 7-8.8 12-15.6 15.2l-5.6 2.6h-311l-5.5-2.6c-7-3.3-12.6-8.9-15.9-15.9l-2.6-5.5v-417l2.6-5.6c3.3-7.1 8.7-12.5 15.8-15.8l5.6-2.6h311l5.5 2.6c7.7 3.6 11.1 6.8 15.1 14.1l3.4 6.3.5 89.5c.5 96.6.3 92.4 5.7 94.9s12.2.2 14.2-4.6c.9-2.1 1.1-25.8.9-92.8l-.3-90-2.3-5.9c-5.9-15.5-17.8-27.3-33.2-32.8l-6.5-2.3L205 2.3C72.5 2.2 47.6 2.4 42.6 3.6z"/><path d="M227.7 68.6c-5.4 5.4-3.9 14.2 2.8 17 5.2 2.2 101.8 1.7 105.2-.6 5.6-3.7 6.3-11.8 1.4-16.2L334 66H230.3l-2.6 2.6zM70.8 130.6c-3.5 1.9-4.8 4.3-4.8 9.3 0 2.8.7 4.8 2.4 6.8l2.4 2.8 131.3.3c145.8.3 134.5.8 137.5-6.5 2-4.7.4-9.7-4-12.4-3-1.8-6.7-1.9-132.6-1.9-112.3.1-129.9.3-132.2 1.6zM73.3 193.1c-7.4 2.2-9.7 11.2-4.4 17.1l2.9 3.3h130.5c108 0 130.8-.2 132.9-1.4 6-3.1 6.9-11.5 1.9-16.5l-3.1-3.1-128.8-.2c-77.1-.1-130 .2-131.9.8zM450.5 203.9c-1.1.5-46.7 45.7-101.3 100.4l-99.4 99.4-4.1 28.9c-4.6 32.7-4.5 34.1 2 37.2 3.2 1.5 4.9 1.4 32.5-2.5l29.1-4.1 99.9-99.9c96.1-96.1 100-100.1 100.5-104.2l.6-4.2-25.4-25.5C463 207.5 459 203.9 456 203.5c-1.9-.3-4.4-.1-5.5.4zm18.8 69.3L454.5 288l-14.7-14.7-14.8-14.8 14.7-14.7 14.8-14.8 14.7 14.7 14.8 14.8-14.7 14.7zm-44.4 15.2 14.4 14.5-69.2 70c-48.6 49.1-70 70.1-71.9 70.5-6.4 1.3-32.4 4.7-32.8 4.3-.2-.2.7-8 2-17.2l2.5-16.9 69.8-69.8c38.4-38.4 70-69.8 70.3-69.8.3 0 7 6.5 14.9 14.4zM70.8 257.6c-3.5 1.8-4.8 4.3-4.8 8.9 0 4.7 1.3 7.1 5 9 2.5 1.3 18.9 1.5 132.8 1.5 128.8 0 130 0 132.5-2 3.8-3 5.2-8 3.3-12.3-3-7.2 6.8-6.7-136.8-6.7-112.2.1-129.7.3-132 1.6zM147 373.1c-1.4.5-15.4 13.9-31.2 29.7L87 431.5l-7.2-7.2c-7.9-7.7-10.4-9.3-14.2-9.3-6.2 0-10.6 4.6-10.6 11.2 0 2.8 1.7 4.9 13.8 17C80.9 455.3 83 457 85.8 457c1.8 0 4.5-.6 6-1.4 1.5-.8 17.4-16.2 35.3-34.3 25.2-25.3 32.8-33.5 33.4-36 1.6-7.6-6.5-14.9-13.5-12.2z"/></g></svg>