<svg width="16" height="15" viewBox="0 0 16 15" fill="none" xmlns="http://www.w3.org/2000/svg">
<g clip-path="url(#clip0_512_127)">
<path d="M14.63 2.25L13.99 2.89L12.13 1.03L12.77 0.39C13.29 -0.13 14.11 -0.13 14.63 0.39C15.15 0.91 15.15 1.74 14.63 2.25Z" fill="#D1D1D1"/>
<path d="M-0.00997122 15.01L0.430028 13.65L0.810029 12.44C0.840028 12.34 0.890029 12.24 0.970028 12.17L2.39003 10.76L6.20003 6.95L10.91 2.25L12.78 4.12L8.07003 8.82L4.26003 12.62L2.84003 14.04C2.77003 14.12 2.68003 14.17 2.58003 14.2L1.36003 14.58L2.8052e-05 15.02L-0.00997122 15.01Z" fill="#D1D1D1"/>
</g>
<defs>
<clipPath id="clip0_512_127">
<rect width="15.01" height="15.03" fill="white" transform="translate(15.02) rotate(90)"/>
</clipPath>
</defs>
</svg>
