<svg id="Layer_1" viewBox="0 0 128 128" xmlns="http://www.w3.org/2000/svg" data-name="Layer 1">
    <path
        d="m64 64.16a15.1 15.1 0 0 0 13.29-7.89 14.93 14.93 0 0 0 1.82-7.16c0-.4 0-.79 0-1.18a15.11 15.11 0 0 0 -30.12 0v1.18a14.93 14.93 0 0 0 1.82 7.16 15.1 15.1 0 0 0 13.19 7.89z"
        fill="#93a2a9"></path>
    <path
        d="m80 69.72a21.35 21.35 0 0 0 -14.4-5.56h-3.21a21.38 21.38 0 0 0 -21.39 21.4v8.44h46v-8.44a21.38 21.38 0 0 0 -7-15.84z"
        fill="#93a2a9"></path>
    <path d="m48 69.72a19.16 19.16 0 0 0 -28.89 16.49v5.64h21.89v-6.29a21.38 21.38 0 0 1 7-15.84z"
        fill="#93a2a9"></path>
    <path
        d="m38.26 42a12.53 12.53 0 1 0 12.45 14.27 14.93 14.93 0 0 1 -1.82-7.16c0-.4 0-.79 0-1.18a12.56 12.56 0 0 0 -10.63-5.93z"
        fill="#93a2a9"></path>
    <g fill="#93a2a9">
        <path d="m108.89 91.85v-5.64a19.16 19.16 0 0 0 -28.89-16.49 21.38 21.38 0 0 1 7 15.84v6.29z"></path>
        <path
            d="m89.74 67.07a12.53 12.53 0 1 0 -10.68-19.14v1.18a14.93 14.93 0 0 1 -1.82 7.16 12.55 12.55 0 0 0 12.5 10.8z"></path>
    </g>
</svg>