<svg xmlns="http://www.w3.org/2000/svg" version="1.0" width="32" height="32" viewBox="0 0 512.000000 512.000000" preserveAspectRatio="xMidYMid meet">

<g transform="translate(0.000000,512.000000) scale(0.100000,-0.100000)" fill="#000000" stroke="none">
<path d="M1740 4634 c-551 -27 -804 -98 -980 -274 -153 -152 -223 -358 -262 -765 -19 -199 -19 -1858 0 -2065 37 -407 108 -617 262 -770 196 -197 511 -270 1172 -274 245 -1 257 0 285 20 98 72 98 195 0 268 -27 20 -45 21 -355 28 -180 3 -376 11 -437 18 -419 46 -559 188 -607 615 -19 171 -19 2089 0 2250 37 311 112 452 287 535 148 71 291 89 757 99 310 6 328 7 355 27 98 73 98 195 0 268 -26 20 -42 21 -220 22 -106 0 -221 -1 -257 -2z"></path>
<path d="M3642 3553 c-44 -21 -74 -66 -79 -118 -10 -85 -4 -93 333 -412 l314 -298 -1173 -5 -1174 -5 -35 -27 c-89 -68 -89 -188 0 -256 l35 -27 1174 -5 1173 -5 -314 -298 c-337 -319 -343 -327 -333 -412 11 -103 122 -165 219 -122 28 12 608 557 722 677 180 191 180 449 0 640 -114 120 -694 665 -722 677 -38 17 -101 15 -140 -4z"></path>
</g>
</svg>