<svg xmlns="http://www.w3.org/2000/svg" width="16" height="16"><path style="stroke:none;fill-rule:nonzero;fill:#d9d9d9;fill-opacity:1" d="M10.797.043a.506.506 0 0 0-.18.773c.156.188.125.184 2 .184h1.711L8.922 6.406l.703.703 5.371-5.37.012 1.722c.008 1.684.008 1.723.074 1.809.121.164.223.214.418.214.195 0 .297-.05.418-.214.066-.086.066-.11.066-2.512V.328l-.07-.101a.71.71 0 0 0-.203-.16C15.574 0 15.543 0 13.23 0c-1.876.004-2.36.008-2.434.043zm-7.11 11.535L1.017 14.25 1 12.535C.984 10.863.98 10.816.918 10.73c-.121-.164-.223-.214-.418-.214-.195 0-.297.05-.418.214-.066.086-.066.122-.074 2.477-.012 2.684-.024 2.535.219 2.691l.128.086H2.77c2.39 0 2.414 0 2.5-.066.164-.121.214-.223.214-.418 0-.195-.05-.297-.214-.418-.086-.066-.125-.066-1.84-.074L1.676 15l2.699-2.703 2.703-2.703-.344-.344a6.186 6.186 0 0 0-.359-.344c-.008 0-1.219 1.203-2.688 2.672zm0 0"/></svg>