<svg width="14" height="13" viewBox="0 0 14 13" fill="none" xmlns="http://www.w3.org/2000/svg">
<g clip-path="url(#clip0_460_545)">
<path d="M11.2311 13.0001V11.7393" stroke="#666666" stroke-miterlimit="10"/>
<path d="M11.2311 7.13892V0" stroke="#666666" stroke-miterlimit="10"/>
<path d="M2.76031 13V5.86963" stroke="#666666" stroke-miterlimit="10"/>
<path d="M2.76031 1.26081V0" stroke="#666666" stroke-miterlimit="10"/>
<path d="M5.08935 3.56087C5.08935 4.83872 4.0456 5.86952 2.76033 5.86952C1.47505 5.86952 0.431305 4.83872 0.431305 3.56087C0.431305 2.28302 1.47505 1.26074 2.76033 1.26074C4.0456 1.26074 5.08935 2.29154 5.08935 3.56087Z" stroke="#666666" stroke-miterlimit="10"/>
<path d="M13.5687 9.43929C13.5687 10.7086 12.525 11.7394 11.2311 11.7394C9.93715 11.7394 8.90203 10.7086 8.90203 9.43929C8.90203 8.16996 9.94578 7.13916 11.2311 7.13916C12.5163 7.13916 13.5687 8.16996 13.5687 9.43929Z" stroke="#666666" stroke-miterlimit="10"/>
</g>
<defs>
<clipPath id="clip0_460_545">
<rect width="14" height="13" fill="white"/>
</clipPath>
</defs>
</svg>
