<svg xmlns="http://www.w3.org/2000/svg" width="32" height="32"><path style="stroke:none;fill-rule:nonzero;fill:#000;fill-opacity:1" d="M15.25 2.031c-.05.012-.305.055-.563.094-2.18.355-4.226 1.836-5.289 3.836C8.762 7.156 8.54 8.1 8.54 9.5c0 .707.024 1.113.11 1.5.652 3.008 2.968 5.281 6.007 5.883.645.129 2.18.11 2.844-.031 3.008-.653 5.281-2.97 5.883-6.008.047-.25.086-.824.086-1.344 0-.52-.04-1.094-.086-1.344-.594-2.992-2.82-5.304-5.758-5.976-.488-.11-2.113-.22-2.375-.149zm1.719 2.063a5.411 5.411 0 0 1 2.906 1.531 5.451 5.451 0 0 1 0 7.75 5.442 5.442 0 0 1-7.742.008 5.447 5.447 0 0 1-.008-7.758 5.432 5.432 0 0 1 4.844-1.531zM8.875 19.094c-1.832.293-3.602 1.418-4.668 2.976-.52.754-.957 1.867-1.113 2.836-.125.762-.125 2.332 0 2.813a3.057 3.057 0 0 0 2.199 2.187c.312.082 1.727.094 10.652.094 6.578 0 10.41-.023 10.625-.063 1.14-.21 2.149-1.218 2.367-2.367.094-.488.075-1.945-.03-2.633-.45-3-2.837-5.394-5.825-5.843-.863-.133-13.387-.125-14.207 0zm14.313 2.043c1.375.414 2.3 1.082 3 2.156.605.918.78 1.594.78 3 0 1.176-.019 1.238-.429 1.543l-.172.133H5.633l-.172-.133c-.387-.285-.43-.398-.45-1.293-.011-.457.012-1.031.051-1.293.336-2.113 1.895-3.727 4-4.156.325-.07 1.75-.082 7.094-.074 6.032.011 6.719.023 7.032.117zm0 0"/></svg>