<svg width="507" height="461" viewBox="0 0 507 461" fill="none" xmlns="http://www.w3.org/2000/svg">
<path d="M507 151.577C507 167.647 505.899 183.444 503.145 198.697C502.319 203.055 501.769 207.685 500.667 212.316C500.392 213.405 500.392 214.767 499.841 215.856C499.015 220.214 497.914 224.845 496.813 229.203C494.61 238.735 491.581 247.996 488.277 257.257C487.451 259.163 486.901 261.07 486.075 262.976C483.597 269.241 480.844 275.505 478.09 281.498C473.96 290.758 469.28 299.474 464.048 308.19H375.943V99.0097C375.943 84.8465 364.379 73.407 350.337 73.407H203.586V0.684219C203.586 -13.479 192.022 -24.9185 177.705 -24.9185H1.21806C-13.0991 -24.9185 -24.663 -13.479 -24.663 0.684219V307.373H-75.0484C-78.3524 301.653 -81.6564 295.661 -84.685 289.941C-87.7136 283.949 -90.467 277.957 -93.2203 271.692C-94.5969 268.696 -95.6982 265.428 -97.0749 262.432C-98.1762 259.436 -99.2775 256.439 -100.654 253.443C-104.233 243.638 -106.987 233.56 -109.465 223.21C-111.117 216.674 -112.493 210.137 -113.595 203.6C-114.145 201.148 -114.421 198.425 -114.696 195.973C-115.522 191.616 -115.797 187.258 -116.348 183.172C-116.899 177.997 -117.174 172.822 -117.449 167.647V167.375C-117.725 162.2 -118 157.024 -118 151.577C-118 114.262 -111.117 78.3096 -99.0022 45.3529C-95.4229 36.0923 -91.5683 26.5593 -87.163 17.8435C-82.7577 8.85529 -78.0771 0.139465 -72.8458 -8.57637C-38.9802 -63.8674 11.9559 -107.719 72.804 -133.049C110.249 -148.847 151.273 -157.29 194.5 -157.29C237.452 -157.29 278.476 -148.574 315.921 -133.049C315.921 -133.049 315.921 -133.322 316.196 -133.049C353.641 -117.524 387.231 -94.6452 415.315 -66.8635C429.632 -52.9726 442.297 -37.7199 453.311 -21.1054C487.452 28.1936 507 87.5702 507 151.577Z" fill="#333333"/>
<path d="M426.328 358.578C416.141 369.745 405.128 380.368 393.288 389.901C389.984 392.624 386.681 395.348 383.101 397.799C380.623 399.706 377.87 401.613 375.392 403.247C372.639 405.426 369.885 407.332 366.857 409.239C365.755 410.056 364.379 411.146 363.002 411.69C359.973 413.869 356.67 415.776 353.366 417.41C349.511 419.861 345.656 422.04 341.526 424.219C339.048 425.581 336.57 426.671 334.092 428.032C331.614 429.122 328.861 430.484 326.383 431.573C324.456 432.39 322.804 433.208 320.877 434.025C317.297 435.386 313.993 437.021 310.414 438.383C309.313 438.927 308.211 439.2 307.11 439.744C303.806 441.106 300.502 442.196 297.198 443.285C294.17 444.647 290.866 445.737 287.562 446.554C282.881 448.188 277.925 449.55 272.969 450.639C268.839 451.729 264.709 452.818 260.579 453.635C257.275 454.452 253.971 454.997 250.392 455.542C246.262 456.359 242.407 456.904 238.002 457.448C234.148 457.993 230.568 458.538 226.714 458.81C216.251 459.9 205.513 460.444 194.775 460.444C184.037 460.444 173.299 459.9 162.837 458.81C158.432 458.266 154.026 457.993 149.621 457.176C148.795 456.904 147.694 456.904 146.592 456.631C143.839 456.087 141.086 455.814 138.057 455.269C135.029 454.725 132 454.18 129.247 453.635C125.117 452.818 120.711 451.729 116.581 450.639C111.901 449.55 107.22 448.188 102.54 446.554C101.989 446.554 101.714 446.281 101.163 446.281C97.5836 445.192 94.2797 444.102 90.7004 442.74C86.2951 441.379 82.1651 439.744 78.0352 438.11C75.0065 437.021 71.978 435.659 68.9493 434.297C66.4713 433.208 63.718 431.846 61.2401 430.756C60.1387 430.211 58.7621 429.667 57.3854 428.85C53.8061 427.215 50.5022 425.581 47.1982 423.674C46.0969 423.13 44.7202 422.585 43.3436 421.496C40.3149 419.589 37.011 417.955 33.707 416.048C33.1564 415.776 32.3304 415.231 31.5044 414.959C27.6497 412.507 23.7951 410.328 20.2158 407.605C14.9845 404.064 10.0286 400.523 5.07263 396.982C2.044 394.531 -0.984604 392.352 -4.01324 389.901C-15.5771 380.64 -26.5903 370.29 -36.5022 359.395C-36.7776 359.123 -37.0529 358.851 -37.3282 358.578H1.21802C15.5352 358.578 26.8238 347.139 26.8238 332.975V26.287H151.824V197.608C151.824 211.771 163.112 223.21 177.429 223.21C191.747 223.21 203.31 211.771 203.31 197.608V123.523H324.731V333.248C324.731 347.411 336.295 358.851 350.612 358.851H426.328V358.578Z" fill="#333333"/>
</svg>
