<?xml version="1.0" encoding="UTF-8"?>
<!DOCTYPE svg PUBLIC "-//W3C//DTD SVG 1.1//EN" "http://www.w3.org/Graphics/SVG/1.1/DTD/svg11.dtd">
<svg xmlns="http://www.w3.org/2000/svg" version="1.1" width="512px" height="512px" style="shape-rendering:geometricPrecision; text-rendering:geometricPrecision; image-rendering:optimizeQuality; fill-rule:evenodd; clip-rule:evenodd" xmlns:xlink="http://www.w3.org/1999/xlink">
<g><path style="opacity:0.962" fill="#000000" d="M 240.5,33.5 C 322.756,30.7177 388.256,62.051 437,127.5C 473.12,182.097 485.454,241.764 474,306.5C 460.48,341.321 434.98,357.488 397.5,355C 379.858,352.929 365.025,345.429 353,332.5C 331.381,370.411 298.548,390.078 254.5,391.5C 205.414,388.555 171.247,364.555 152,319.5C 148.735,310.44 146.735,301.107 146,291.5C 145.833,279.333 145.667,267.167 145.5,255C 140.198,213.238 152.198,177.571 181.5,148C 216.28,119.314 254.947,112.647 297.5,128C 336.376,145.885 358.876,176.052 365,218.5C 365.333,242.167 365.667,265.833 366,289.5C 369.275,308.108 380.108,319.608 398.5,324C 423.289,326.206 439.122,315.373 446,291.5C 454.725,216.178 430.558,154.011 373.5,105C 316.555,63.0544 254.555,53.7211 187.5,77C 120.865,104.973 80.6982,154.473 67,225.5C 58.1164,294.192 78.9497,352.026 129.5,399C 188.586,447.279 254.252,458.612 326.5,433C 333.167,430 339.833,427 346.5,424C 357.79,422.457 364.457,427.291 366.5,438.5C 365.878,443.912 363.544,448.412 359.5,452C 296.217,483.298 231.883,485.632 166.5,459C 96.2656,426.074 53.0989,371.574 37,295.5C 24.0824,198.534 57.5824,122.367 137.5,67C 169.273,47.6861 203.607,36.5194 240.5,33.5 Z M 251.5,150.5 C 287.718,151.241 313.552,167.908 329,200.5C 331.136,206.709 332.802,213.042 334,219.5C 334.667,243.5 334.667,267.5 334,291.5C 327.628,324.197 308.795,346.031 277.5,357C 233.609,365.97 201.776,350.47 182,310.5C 179.573,304.368 177.907,298.034 177,291.5C 176.333,267.5 176.333,243.5 177,219.5C 183.31,186.857 202.143,165.024 233.5,154C 239.581,152.503 245.581,151.336 251.5,150.5 Z"/></g>
</svg>
