<?xml version="1.0" standalone="no"?>
<!DOCTYPE svg PUBLIC "-//W3C//DTD SVG 20010904//EN" "http://www.w3.org/TR/2001/REC-SVG-20010904/DTD/svg10.dtd">
<svg version="1.0" xmlns="http://www.w3.org/2000/svg"
    width="480.000000pt" height="480.000000pt" viewBox="0 0 480.000000 480.000000"
    preserveAspectRatio="xMidYMid meet">
    <metadata> Created by potrace 1.16, written by Peter Selinger 2001-2019 </metadata>
    <g transform="translate(0.000000,480.000000) scale(0.100000,-0.100000)"
        fill="#000000" stroke="none">
        <path
            d="M2255 4789 c-874 -63 -1622 -562 -2001 -1334 -333 -679 -331 -1454 6
-2129 l65 -131 198 -3 197 -2 0 1205 c0 1320 -3 1244 58 1308 62 65 16 62 795
65 463 2 721 -1 746 -8 53 -14 101 -49 125 -90 20 -33 21 -55 26 -345 l5 -310
595 -5 c647 -5 622 -3 677 -62 55 -58 53 -29 53 -928 l0 -830 341 2 342 3 59
119 c115 228 183 435 229 687 31 173 38 503 15 685 -106 828 -608 1522 -1360
1879 -352 168 -792 252 -1171 224z"
            fill="#d71920" />
        <path
            d="M1118 2153 l-3 -1218 -27 -47 c-21 -34 -41 -53 -80 -72 -50 -25 -60
-26 -217 -26 l-166 -1 117 -114 c591 -578 1450 -805 2261 -599 404 103 804
332 1097 628 l85 86 -308 0 c-335 0 -352 2 -410 58 -66 62 -62 2 -65 925 l-3
837 -464 0 -464 0 -3 -324 -3 -324 -31 -39 c-38 -48 -106 -83 -159 -83 -53 0
-121 35 -159 83 l-31 39 -5 701 -5 702 -477 3 -478 2 -2 -1217z"
            fill="#d71920" />
    </g>
</svg>