<?xml version="1.0" encoding="UTF-8"?>
<!DOCTYPE svg PUBLIC "-//W3C//DTD SVG 1.1//EN" "http://www.w3.org/Graphics/SVG/1.1/DTD/svg11.dtd">
<svg xmlns="http://www.w3.org/2000/svg" version="1.1" width="512px" height="512px" style="shape-rendering:geometricPrecision; text-rendering:geometricPrecision; image-rendering:optimizeQuality; fill-rule:evenodd; clip-rule:evenodd" xmlns:xlink="http://www.w3.org/1999/xlink">
<g><path style="opacity:0.953" fill="#000000" d="M 511.5,369.5 C 511.5,378.833 511.5,388.167 511.5,397.5C 507.856,421.62 497.19,442.12 479.5,459C 437.75,493.484 390.75,503.151 338.5,488C 258.148,467.924 188.648,429.09 130,371.5C 87.8604,328.712 51.8604,281.379 22,229.5C 10.7056,204.466 3.20564,178.466 -0.5,151.5C -0.5,142.167 -0.5,132.833 -0.5,123.5C 4.33621,87.9942 19.6695,57.8275 45.5,33C 65.3182,17.9632 87.6515,12.2966 112.5,16C 124.029,15.8482 133.195,20.3482 140,29.5C 143.255,35.0084 146.255,40.675 149,46.5C 161.057,76.2812 173.391,105.948 186,135.5C 191.359,149.377 189.693,162.377 181,174.5C 172.468,184.877 163.468,194.877 154,204.5C 150.914,207.755 148.414,211.422 146.5,215.5C 174.785,264.286 212.785,303.786 260.5,334C 276.871,343.603 294.038,351.436 312,357.5C 317.057,356.972 321.057,354.638 324,350.5C 334.769,337.732 344.769,324.399 354,310.5C 364.444,297.939 377.611,293.772 393.5,298C 427.742,313.454 461.742,329.454 495.5,346C 504.709,351.346 510.042,359.179 511.5,369.5 Z M 89.5,40.5 C 97.84,40.3336 106.173,40.5003 114.5,41C 116.848,41.3459 118.681,42.5125 120,44.5C 135.262,79.8529 150.095,115.353 164.5,151C 162.751,155.329 160.585,159.496 158,163.5C 148,174.833 138,186.167 128,197.5C 121.515,210.533 122.182,223.199 130,235.5C 155.464,276.304 187.297,311.47 225.5,341C 249.28,357.725 274.946,371.058 302.5,381C 316.979,384.338 329.812,381.172 341,371.5C 352.49,356.519 363.49,341.186 374,325.5C 376.261,323.37 378.928,322.036 382,321.5C 416.727,336.28 450.894,352.28 484.5,369.5C 486.968,384.824 485.468,399.824 480,414.5C 461.445,446.548 433.612,464.715 396.5,469C 378.46,470.37 360.793,468.37 343.5,463C 299.973,450.719 258.64,433.385 219.5,411C 168.58,376.75 124.747,334.917 88,285.5C 76.0863,268.674 64.4197,251.674 53,234.5C 36.1174,204.686 26.6174,172.686 24.5,138.5C 25.9743,104.063 38.9743,74.8959 63.5,51C 71.4696,45.5064 80.1363,42.0064 89.5,40.5 Z"/></g>
</svg>
