<?xml version="1.0" encoding="UTF-8"?>
<svg xmlns="http://www.w3.org/2000/svg" xmlns:xlink="http://www.w3.org/1999/xlink" width="32px" height="32px" viewBox="0 0 32 32" version="1.1">
<g id="surface1">
<path style=" stroke:none;fill-rule:nonzero;fill:rgb(0%,0%,0%);fill-opacity:1;" d="M 0.78125 3.511719 C 0.710938 3.550781 0.625 3.632812 0.582031 3.679688 C 0.46875 3.824219 0.46875 28.175781 0.582031 28.320312 C 0.625 28.375 0.71875 28.449219 0.792969 28.488281 C 0.988281 28.59375 31.011719 28.59375 31.207031 28.488281 C 31.28125 28.449219 31.375 28.375 31.417969 28.320312 C 31.53125 28.175781 31.53125 3.824219 31.417969 3.679688 C 31.375 3.625 31.28125 3.550781 31.207031 3.511719 C 31.011719 3.40625 0.960938 3.40625 0.78125 3.511719 Z M 30.5 7.03125 L 30.5 9.625 L 1.5 9.625 L 1.5 4.4375 L 30.5 4.4375 Z M 30.5 19.09375 L 30.5 27.5625 L 1.5 27.5625 L 1.5 10.625 L 30.5 10.625 Z M 30.5 19.09375 "/>
<path style=" stroke:none;fill-rule:nonzero;fill:rgb(0%,0%,0%);fill-opacity:1;" d="M 22.523438 6.429688 C 22.125 6.605469 22.070312 7.269531 22.429688 7.542969 C 22.488281 7.585938 22.65625 7.617188 22.8125 7.617188 C 22.96875 7.617188 23.136719 7.585938 23.195312 7.542969 C 23.46875 7.332031 23.519531 6.855469 23.292969 6.59375 C 23.144531 6.414062 22.757812 6.332031 22.523438 6.429688 Z M 22.523438 6.429688 "/>
<path style=" stroke:none;fill-rule:nonzero;fill:rgb(0%,0%,0%);fill-opacity:1;" d="M 25.65625 6.449219 C 25.4375 6.570312 25.375 6.699219 25.375 7.039062 C 25.375 7.320312 25.398438 7.386719 25.539062 7.492188 C 25.78125 7.6875 26.207031 7.675781 26.40625 7.46875 C 26.53125 7.351562 26.5625 7.257812 26.5625 7.019531 C 26.554688 6.679688 26.476562 6.539062 26.226562 6.4375 C 26.007812 6.355469 25.8125 6.363281 25.65625 6.449219 Z M 25.65625 6.449219 "/>
<path style=" stroke:none;fill-rule:nonzero;fill:rgb(0%,0%,0%);fill-opacity:1;" d="M 28.53125 6.449219 C 28.3125 6.570312 28.25 6.699219 28.25 7.039062 C 28.25 7.320312 28.273438 7.386719 28.414062 7.492188 C 28.65625 7.6875 29.082031 7.675781 29.28125 7.46875 C 29.40625 7.351562 29.4375 7.257812 29.4375 7.019531 C 29.429688 6.679688 29.351562 6.539062 29.101562 6.4375 C 28.882812 6.355469 28.6875 6.363281 28.53125 6.449219 Z M 28.53125 6.449219 "/>
<path style=" stroke:none;fill-rule:nonzero;fill:rgb(0%,0%,0%);fill-opacity:1;" d="M 2.414062 6.757812 C 2.179688 6.9375 2.179688 7.3125 2.414062 7.492188 L 2.582031 7.625 L 20.382812 7.625 L 20.53125 7.46875 C 20.632812 7.375 20.6875 7.242188 20.6875 7.125 C 20.6875 7.007812 20.632812 6.875 20.53125 6.78125 L 20.382812 6.625 L 2.582031 6.625 Z M 2.414062 6.757812 "/>
<path style=" stroke:none;fill-rule:nonzero;fill:rgb(0%,0%,0%);fill-opacity:1;" d="M 7.945312 13.132812 C 7.136719 13.289062 6.386719 13.863281 6.023438 14.585938 C 5.488281 15.679688 5.636719 16.835938 6.4375 17.699219 C 7.542969 18.90625 9.335938 18.929688 10.460938 17.75 C 10.84375 17.351562 11.023438 17.039062 11.15625 16.519531 C 11.664062 14.585938 9.914062 12.742188 7.945312 13.132812 Z M 9.207031 14.238281 C 9.855469 14.523438 10.289062 15.257812 10.230469 15.976562 C 10.117188 17.46875 8.320312 18.15625 7.25 17.117188 C 6.449219 16.335938 6.539062 15.15625 7.449219 14.417969 C 7.898438 14.054688 8.632812 13.980469 9.207031 14.238281 Z M 9.207031 14.238281 "/>
<path style=" stroke:none;fill-rule:nonzero;fill:rgb(0%,0%,0%);fill-opacity:1;" d="M 15.15625 13.40625 C 15.054688 13.5 15 13.632812 15 13.75 C 15 13.867188 15.054688 14 15.15625 14.09375 L 15.304688 14.25 L 21.757812 14.25 L 21.90625 14.09375 C 22.007812 14 22.0625 13.867188 22.0625 13.75 C 22.0625 13.632812 22.007812 13.5 21.90625 13.40625 L 21.757812 13.25 L 15.304688 13.25 Z M 15.15625 13.40625 "/>
<path style=" stroke:none;fill-rule:nonzero;fill:rgb(0%,0%,0%);fill-opacity:1;" d="M 15.15625 16.96875 C 14.882812 17.238281 15.019531 17.6875 15.394531 17.78125 C 15.46875 17.800781 18.15625 17.804688 21.363281 17.800781 L 27.199219 17.78125 L 27.320312 17.632812 C 27.480469 17.429688 27.46875 17.148438 27.28125 16.96875 L 27.132812 16.8125 L 15.304688 16.8125 Z M 15.15625 16.96875 "/>
<path style=" stroke:none;fill-rule:nonzero;fill:rgb(0%,0%,0%);fill-opacity:1;" d="M 6.070312 19.125 C 5.40625 19.300781 4.855469 19.632812 4.304688 20.1875 C 3.476562 21.023438 3.199219 21.761719 3.144531 23.320312 C 3.105469 24.375 3.125 24.5625 3.3125 24.75 C 3.4375 24.875 3.542969 24.875 8.375 24.875 C 13.207031 24.875 13.3125 24.875 13.4375 24.75 C 13.625 24.5625 13.644531 24.375 13.605469 23.320312 C 13.5625 22.21875 13.480469 21.8125 13.144531 21.125 C 12.855469 20.539062 12.101562 19.757812 11.519531 19.449219 C 10.761719 19.050781 10.386719 19 8.351562 19.007812 C 6.761719 19.007812 6.476562 19.023438 6.070312 19.125 Z M 10.507812 20.125 C 11.292969 20.363281 11.914062 20.898438 12.28125 21.644531 C 12.519531 22.132812 12.617188 22.667969 12.625 23.417969 L 12.625 23.875 L 4.125 23.875 L 4.125 23.417969 C 4.132812 21.699219 4.863281 20.5625 6.238281 20.117188 C 6.542969 20.023438 6.832031 20.007812 8.351562 20.007812 C 9.929688 20 10.148438 20.011719 10.507812 20.125 Z M 10.507812 20.125 "/>
<path style=" stroke:none;fill-rule:nonzero;fill:rgb(0%,0%,0%);fill-opacity:1;" d="M 15.132812 20.539062 C 14.957031 20.757812 14.96875 20.957031 15.148438 21.167969 L 15.300781 21.34375 L 21.042969 21.363281 C 24.199219 21.367188 26.875 21.363281 26.988281 21.34375 C 27.414062 21.269531 27.585938 20.789062 27.292969 20.511719 L 27.148438 20.375 L 15.257812 20.375 Z M 15.132812 20.539062 "/>
<path style=" stroke:none;fill-rule:nonzero;fill:rgb(0%,0%,0%);fill-opacity:1;" d="M 15.335938 23.9375 C 15.164062 24.007812 15 24.238281 15 24.414062 C 15 24.488281 15.054688 24.617188 15.132812 24.710938 L 15.257812 24.875 L 27.167969 24.875 L 27.300781 24.730469 C 27.550781 24.46875 27.449219 24.074219 27.101562 23.9375 C 26.886719 23.863281 15.53125 23.855469 15.335938 23.9375 Z M 15.335938 23.9375 "/>
</g>
</svg>
