<svg width="16" height="16" viewBox="0 0 16 16" fill="none" xmlns="http://www.w3.org/2000/svg">
<path d="M3.65543 0C3.89483 0 4.13468 0 4.37408 0C4.40241 0.00959395 4.43028 0.025127 4.45952 0.028325C5.01644 0.0872593 5.54733 0.243047 6.00923 0.55782C6.30162 0.757009 6.57894 0.877161 6.92571 0.749699C6.9449 0.742846 6.96683 0.74513 6.98739 0.742389C9.13834 0.460967 11.0828 0.990462 12.7184 2.39803C14.8524 4.23459 15.6506 6.5979 15.1937 9.37923C15.1745 9.4971 15.1814 9.59258 15.2563 9.69766C16.2751 11.129 16.2436 13.0126 15.1837 14.4138C13.8765 16.1411 11.4643 16.513 9.69663 15.2558C9.59795 15.1854 9.50749 15.168 9.39418 15.1904C8.38952 15.3896 7.38212 15.3933 6.38889 15.147C3.787 14.5029 1.99835 12.9276 1.0773 10.4021C0.626827 9.16725 0.555555 7.89354 0.805464 6.60338C0.827393 6.48962 0.813231 6.3978 0.740131 6.30003C0.479258 5.95145 0.284174 5.56632 0.168585 5.14647C0.099141 4.89246 0.0552814 4.63159 0 4.37393V3.6553C0.0109649 3.60002 0.0237573 3.54565 0.031981 3.48991C0.26864 1.90417 1.15817 0.83239 2.62975 0.243047C2.95276 0.114214 3.31277 0.078579 3.65543 0ZM8.12454 12.8276C8.89345 12.8363 9.63632 12.707 10.3445 12.4C11.3108 11.9815 11.9856 11.3104 12.1701 10.2354C12.3259 9.32989 12.0847 8.55141 11.3674 7.9543C11.017 7.66237 10.609 7.45267 10.1768 7.31699C9.60252 7.13653 9.01498 6.99902 8.43384 6.84095C7.93814 6.70617 7.43786 6.58556 6.94992 6.42612C6.66301 6.33247 6.5159 6.08759 6.51407 5.78424C6.51224 5.47449 6.68585 5.27256 6.965 5.15469C7.33415 4.99891 7.72341 4.98657 8.11449 4.99434C8.66136 5.00485 9.14153 5.1853 9.54541 5.56038C9.67105 5.67734 9.80171 5.78927 9.93649 5.89617C10.3139 6.19541 10.7324 6.29226 11.1742 6.07069C11.8549 5.72942 11.9673 4.77916 11.409 4.22271C11.1212 3.9358 10.7849 3.72337 10.4148 3.56164C9.80765 3.29666 9.16849 3.16463 8.51242 3.1057C7.48583 3.01296 6.49168 3.12306 5.53636 3.54474C4.03006 4.20946 3.62025 5.69789 4.10727 7.04425C4.36358 7.75237 4.94426 8.16308 5.62134 8.39014C6.41264 8.65557 7.23227 8.83603 8.03773 9.06126C8.43247 9.17182 8.8304 9.27872 9.21189 9.42537C9.53124 9.54827 9.6715 9.87126 9.60389 10.2084C9.52805 10.5867 9.24981 10.7863 8.91675 10.8841C7.95413 11.1674 7.07785 11.0212 6.33223 10.3034C6.08141 10.0622 5.8315 9.81644 5.55601 9.60537C5.08772 9.24629 4.11001 9.33492 3.94325 10.2422C3.8601 10.6945 3.98346 11.0979 4.27951 11.447C4.63222 11.8622 5.0932 12.1231 5.58342 12.3355C6.39345 12.6859 7.24735 12.8189 8.12454 12.8276Z" fill="white"/>
</svg>
