<svg width="15" height="12" viewBox="0 0 15 12" fill="none" xmlns="http://www.w3.org/2000/svg">
<path d="M0.919528 5.22599C0.919528 5.22599 7.55374 2.59182 9.85459 1.66426C10.7366 1.29322 13.7277 0.105939 13.7277 0.105939C13.7277 0.105939 15.1083 -0.413501 14.9932 0.848026C14.9549 1.36747 14.6481 3.1854 14.3413 5.15184C13.8812 7.93441 13.3826 10.9768 13.3826 10.9768C13.3826 10.9768 13.3059 11.8301 12.654 11.9786C12.0022 12.1271 10.9284 11.4593 10.7367 11.3108C10.5833 11.1995 7.86051 9.5299 6.86357 8.71367C6.59512 8.49113 6.28836 8.04583 6.90189 7.52639C8.28244 6.30204 9.93144 4.7809 10.9284 3.81627C11.3885 3.37098 11.8488 2.3322 9.93134 3.59362C7.20866 5.41156 4.52429 7.11828 4.52429 7.11828C4.52429 7.11828 3.91066 7.48932 2.76034 7.15535C1.6098 6.82148 0.267677 6.37619 0.267677 6.37619C0.267677 6.37619 -0.652727 5.81968 0.919528 5.22599Z" fill="white"/>
</svg>
