<?xml version="1.0" encoding="UTF-8"?>
<svg xmlns="http://www.w3.org/2000/svg" xmlns:xlink="http://www.w3.org/1999/xlink" width="32px" height="32px" viewBox="0 0 32 32" version="1.1">
<g id="surface1">
<path style=" stroke:none;fill-rule:nonzero;fill:rgb(67.843139%,70.980394%,74.117649%);fill-opacity:1;" d="M 22.625 0.113281 C 22 0.425781 21.949219 1.34375 22.542969 1.730469 C 22.699219 1.835938 22.957031 1.84375 25.738281 1.875 L 28.761719 1.90625 L 22.105469 8.492188 C 18.117188 12.429688 15.414062 15.15625 15.363281 15.273438 C 15.1875 15.707031 15.332031 16.199219 15.707031 16.429688 C 15.976562 16.59375 16.460938 16.605469 16.695312 16.449219 C 16.789062 16.394531 19.835938 13.394531 23.476562 9.78125 L 30.09375 3.226562 L 30.125 6.257812 C 30.15625 9.042969 30.164062 9.300781 30.269531 9.457031 C 30.65625 10.050781 31.574219 10 31.886719 9.375 C 31.992188 9.175781 32 8.832031 32 4.945312 C 32 0.773438 32 0.730469 31.867188 0.5 C 31.792969 0.367188 31.632812 0.207031 31.5 0.132812 C 31.269531 0 31.226562 0 27.054688 0 C 23.167969 0 22.824219 0.0078125 22.625 0.113281 Z M 22.625 0.113281 "/>
<path style=" stroke:none;fill-rule:nonzero;fill:rgb(67.843139%,70.980394%,74.117649%);fill-opacity:1;" d="M 4.730469 3.1875 C 2.332031 3.59375 0.40625 5.570312 0.0625 7.96875 C 0.0117188 8.332031 0 11.09375 0.0117188 17.875 C 0.0390625 27.207031 0.0390625 27.289062 0.167969 27.71875 C 0.519531 28.898438 0.875 29.511719 1.679688 30.320312 C 2.488281 31.125 3.101562 31.480469 4.28125 31.832031 C 4.710938 31.960938 4.792969 31.960938 14.125 31.988281 C 20.90625 32 23.667969 31.988281 24.03125 31.9375 C 26.207031 31.625 27.988281 30.074219 28.667969 27.90625 L 28.84375 27.34375 L 28.882812 14.429688 L 28.738281 14.179688 C 28.5625 13.867188 28.15625 13.65625 27.824219 13.710938 C 27.570312 13.75 27.351562 13.894531 27.164062 14.148438 C 27.03125 14.320312 27.03125 14.382812 27 20.707031 C 26.96875 26.664062 26.957031 27.117188 26.851562 27.4375 C 26.664062 28.007812 26.3125 28.570312 25.882812 29.007812 C 25.429688 29.449219 25 29.726562 24.375 29.949219 L 23.96875 30.09375 L 14.675781 30.113281 C 4.28125 30.132812 4.90625 30.15625 3.945312 29.679688 C 3.226562 29.324219 2.675781 28.773438 2.320312 28.054688 C 1.84375 27.09375 1.867188 27.71875 1.886719 17.324219 L 1.90625 8.03125 L 2.050781 7.625 C 2.28125 6.988281 2.550781 6.570312 3.023438 6.09375 C 3.324219 5.792969 3.617188 5.582031 3.9375 5.417969 C 4.789062 4.992188 4.617188 5 11.1875 5 L 17.101562 5 L 17.375 4.855469 C 17.730469 4.675781 17.894531 4.386719 17.855469 3.980469 C 17.824219 3.625 17.667969 3.386719 17.367188 3.238281 C 17.167969 3.132812 16.75 3.125 11.09375 3.132812 C 7.761719 3.136719 4.894531 3.164062 4.730469 3.1875 Z M 4.730469 3.1875 "/>
</g>
</svg>
