<svg width="27" height="20" viewBox="0 0 27 20" fill="none" xmlns="http://www.w3.org/2000/svg">
<path d="M27 19.0065C27 19.5585 26.5441 20 25.9743 20H10.3193C8.35073 20 6.76554 18.4646 6.76554 16.558V14.6513H16.6911C19.9547 14.6513 22.6174 12.0723 22.6174 8.91119V7.64676H23.4463C25.4148 7.64676 27 9.19217 27 11.0888V19.0065Z" fill="white"/>
<path d="M20.2448 3.44205V8.91119C20.2448 10.8078 18.6493 12.3532 16.6911 12.3532H1.03607C0.466232 12.3532 0 11.9017 0 11.3497V3.44205C0 1.54541 1.59555 0 3.55372 0H16.6807C18.6389 0 20.2345 1.54541 20.2345 3.44205H20.2448Z" fill="white"/>
</svg>
