<svg width="26" height="26" viewBox="0 0 26 26" fill="none" xmlns="http://www.w3.org/2000/svg">
<path d="M3.87813 19.5651V6.65969C3.87813 6.06824 4.36289 5.58326 4.95407 5.58326H12.2965C12.8877 5.58326 13.3724 6.06824 13.3724 6.65969V9.6879H19.4852C20.0764 9.6879 20.5612 10.1729 20.5612 10.7643V19.5769H24.2146C25.3497 17.6488 26 15.4013 26 13.0118C25.9882 5.81984 20.171 0 12.9941 0C5.81719 0 0 5.81984 0 13C0 15.4013 0.650296 17.6369 1.77353 19.5651H3.87813Z" fill="white"/>
<path d="M19.4852 21.7179C18.894 21.7179 18.4093 21.2329 18.4093 20.6415V11.8289H13.3606V14.9399C13.3606 15.5314 12.8759 16.0164 12.2847 16.0164C11.6935 16.0164 11.2087 15.5314 11.2087 14.9399V7.72429H6.03001V20.6297C6.03001 21.2211 5.54525 21.7061 4.95407 21.7061H3.34607C5.7226 24.3439 9.16326 26 12.9941 26C16.8249 26 20.2656 24.3439 22.6421 21.7061H19.4852V21.7179Z" fill="white"/>
</svg>
