<svg width="27" height="26" viewBox="0 0 27 26" fill="none" xmlns="http://www.w3.org/2000/svg">
    <path
        d="M8.47487 12.97L13.018 17.5251L5.02259 25.5205C4.41125 26.1438 3.41632 26.1438 2.79299 25.5205L0.467496 23.183C-0.155832 22.5717 -0.155832 21.5768 0.467496 20.9534L8.46289 12.958L8.47487 12.97Z"
        fill="#FFFFFF" />
    <path d="M11.9492 9.49892L9.71999 11.7282L14.2802 16.2883L16.5094 14.0591L11.9492 9.49892Z"
        fill="#FFFFFF" />
    <path
        d="M25.5685 4.99862L17.7409 12.8262L13.1858 8.27109L20.9894 0.467496C21.6007 -0.155832 22.5957 -0.155832 23.219 0.467496L25.5805 2.82895C26.1798 3.42831 26.1798 4.39926 25.5805 4.99862H25.5685Z"
        fill="#FFFFFF" />
    <path
        d="M4.07561 1.63024L4.84279 2.39742L2.61319 4.62702L1.84601 3.85984C1.22268 3.23651 1.22268 2.24159 1.84601 1.63024C2.46934 1.0189 3.46427 1.00692 4.07561 1.63024Z"
        fill="#FFFFFF" />
    <path
        d="M24.5855 24.3698L22.9553 23.8423L21.5168 23.3868C21.397 23.3628 21.2771 23.2909 21.1932 23.195L9.73352 11.7354L4.06362 6.08944L6.30521 3.84786L11.9391 9.50576L23.4108 20.9774C23.5067 21.0613 23.5786 21.1692 23.6026 21.2891L24.0581 22.7515L24.5855 24.3817V24.3698Z"
        fill="#FFFFFF" />
</svg>