<svg version="1.1" xmlns="http://www.w3.org/2000/svg" xmlns:xlink="http://www.w3.org/1999/xlink" width="32px" height="32px" viewBox="0,0,256,256"><defs><clipPath id="clip-1"><rect x="0" y="0" width="32" height="32" id="clip1 1" fill="none" fill-rule="nonzero"></rect></clipPath><clipPath id="clip-2"><rect x="0" y="0" width="32" height="32" id="clip2 1" fill="none" fill-rule="nonzero"></rect></clipPath><clipPath id="clip-3"><rect x="0" y="0" width="32" height="32" id="clip3 1" fill="none" fill-rule="nonzero"></rect></clipPath><clipPath id="clip-4"><rect x="0" y="0" width="32" height="32" id="clip4 1" fill="none" fill-rule="nonzero"></rect></clipPath><clipPath id="clip-5"><rect x="0" y="0" width="32" height="32" id="clip5 1" fill="none" fill-rule="nonzero"></rect></clipPath><clipPath id="clip-6"><rect x="0" y="0" width="32" height="32" id="clip6 1" fill="none" fill-rule="nonzero"></rect></clipPath><clipPath id="clip-7"><rect x="0" y="0" width="32" height="32" id="clip7 1" fill="none" fill-rule="nonzero"></rect></clipPath></defs><g fill="none" fill-rule="none" stroke="none" stroke-width="1" stroke-linecap="butt" stroke-linejoin="miter" stroke-miterlimit="10" stroke-dasharray="" stroke-dashoffset="0" font-family="none" font-weight="none" font-size="none" text-anchor="none" style="mix-blend-mode: normal"><g transform="scale(8,8)"><g id="surface1"><g clip-path="url(#clip-1)" id="surface5 1"><path d="M3.46875,1.96875c5.75,-0.01172 11.5,0 17.25,0.03125c0.82422,0.26172 1.3125,0.8125 1.46875,1.65625c0.04297,1.25 0.04297,2.5 0,3.75c-0.1875,0.36719 -0.46875,0.46094 -0.84375,0.28125c-0.07422,-0.05469 -0.12891,-0.12891 -0.15625,-0.21875c-0.01953,-1.23047 -0.04297,-2.45703 -0.0625,-3.6875c-0.10547,-0.3125 -0.30469,-0.55469 -0.59375,-0.71875c-5.51953,-0.10156 -11.03906,-0.125 -16.5625,-0.0625c-0.57422,0.07422 -0.89453,0.39453 -0.96875,0.96875c-0.04297,8 -0.04297,16 0,24c0.05078,0.48828 0.3125,0.8125 0.78125,0.96875c5.51953,0.04297 11.04297,0.04297 16.5625,0c0.42578,-0.09375 0.6875,-0.35547 0.78125,-0.78125c0.01953,-1.08203 0.04297,-2.16797 0.0625,-3.25c0.21094,-0.32031 0.49219,-0.39062 0.84375,-0.21875c0.05859,0.08984 0.11328,0.18359 0.15625,0.28125c0.04297,1.10547 0.04297,2.20703 0,3.3125c-0.19922,0.94922 -0.76953,1.51953 -1.71875,1.71875c-5.60547,0.04297 -11.20703,0.04297 -16.8125,0c-0.875,-0.16406 -1.42578,-0.67578 -1.65625,-1.53125c-0.04297,-8.33203 -0.04297,-16.66797 0,-25c0.21094,-0.78125 0.69922,-1.28125 1.46875,-1.5zM3.46875,1.96875" fill="#ffffff" fill-rule="evenodd"></path></g><g clip-path="url(#clip-2)" id="surface8 1"><path d="M26.21875,4.46875c1.82031,-0.01172 2.84375,0.88281 3.0625,2.6875c-0.02344,0.52734 -0.17187,1.01563 -0.4375,1.46875c0.98438,0.51953 1.32813,1.32031 1.03125,2.40625c-1.16797,2.29297 -2.33203,4.58203 -3.5,6.875c-0.30859,0.24219 -0.60156,0.22266 -0.875,-0.0625c-0.125,-0.20703 -0.125,-0.41797 0,-0.625c1.14063,-2.17578 2.26563,-4.36328 3.375,-6.5625c0.12891,-0.4375 -0.00391,-0.76172 -0.40625,-0.96875c-0.07031,-0.04687 -0.13281,-0.03516 -0.1875,0.03125c-2.28516,4.50781 -4.58984,9.00781 -6.90625,13.5c-1.30469,0.99219 -2.62891,1.96094 -3.96875,2.90625c-0.32812,0.15625 -0.58984,0.08203 -0.78125,-0.21875c-0.01953,-0.625 -0.04297,-1.25 -0.0625,-1.875c-0.05859,-1.10937 -0.03906,-2.21094 0.0625,-3.3125c2.51953,-4.9375 5.04297,-9.875 7.5625,-14.8125c0.44531,-0.80859 1.12109,-1.28906 2.03125,-1.4375zM26.34375,5.53125c1.10547,-0.01172 1.73047,0.53125 1.875,1.625c-0.03906,0.36719 -0.16406,0.69922 -0.375,1c-0.92187,-0.48828 -1.84766,-0.96484 -2.78125,-1.4375c0.19531,-0.64062 0.62109,-1.03906 1.28125,-1.1875zM24.46875,7.65625c0.93359,0.46875 1.87109,0.9375 2.8125,1.40625c0.03125,0.03516 0.05469,0.07813 0.0625,0.125c-2.22656,4.33594 -4.44531,8.67969 -6.65625,13.03125c-0.87891,-0.45703 -1.76562,-0.90234 -2.65625,-1.34375c-0.07812,-0.04687 -0.14062,-0.10937 -0.1875,-0.1875c2.23438,-4.33203 4.44141,-8.67578 6.625,-13.03125zM17.59375,21.84375c0.75,0.39453 1.5,0.78906 2.25,1.1875c-0.71484,0.52734 -1.43359,1.05078 -2.15625,1.5625c-0.08594,-0.91406 -0.11719,-1.83203 -0.09375,-2.75zM17.59375,21.84375" fill="#ffffff" fill-rule="evenodd"></path></g><g clip-path="url(#clip-3)" id="surface11 1"><path d="M5.40625,4.96875c4.4375,-0.01172 8.875,0 13.3125,0.03125c0.11328,0.03125 0.1875,0.10547 0.21875,0.21875c0.04297,1.54297 0.04297,3.08203 0,4.625c-0.08203,0.16406 -0.21875,0.25781 -0.40625,0.28125c-4.37891,0.0625 -8.75391,0.04297 -13.125,-0.0625c-0.07422,-0.07422 -0.14453,-0.14453 -0.21875,-0.21875c-0.04297,-1.51953 -0.04297,-3.04297 0,-4.5625c0.0625,-0.11328 0.13672,-0.21875 0.21875,-0.3125zM6.21875,5.96875c3.91797,0 7.83203,0 11.75,0c0,1.04297 0,2.08203 0,3.125c-3.91797,0 -7.83203,0 -11.75,0c0,-1.04297 0,-2.08203 0,-3.125zM6.21875,5.96875" fill="#ffffff" fill-rule="evenodd"></path></g><g clip-path="url(#clip-4)" id="surface14 1"><path d="M5.40625,12.21875c4.4375,-0.01172 8.875,0 13.3125,0.03125c0.26953,0.23438 0.32031,0.51563 0.15625,0.84375c-0.07422,0.08594 -0.16797,0.14063 -0.28125,0.15625c-4.33203,0.04297 -8.66797,0.04297 -13,0c-0.375,-0.10547 -0.51172,-0.34375 -0.40625,-0.71875c0.0625,-0.11328 0.13672,-0.21875 0.21875,-0.3125zM5.40625,12.21875" fill="#ffffff" fill-rule="evenodd"></path></g><g clip-path="url(#clip-5)" id="surface17 1"><path d="M5.46875,15.21875c3.58203,-0.01172 7.16797,0 10.75,0.03125c0.26953,0.23438 0.32031,0.51563 0.15625,0.84375c-0.07422,0.08594 -0.16797,0.14063 -0.28125,0.15625c-3.51953,0.04297 -7.04297,0.04297 -10.5625,0c-0.37891,-0.17969 -0.47266,-0.46094 -0.28125,-0.84375c0.07031,-0.07031 0.14453,-0.13281 0.21875,-0.1875zM5.46875,15.21875" fill="#ffffff" fill-rule="evenodd"></path></g><g clip-path="url(#clip-6)" id="surface20 1"><path d="M5.46875,18.21875c2.58203,-0.01172 5.16797,0 7.75,0.03125c0.43359,0.35938 0.41016,0.69141 -0.0625,1c-2.54297,0.04297 -5.08203,0.04297 -7.625,0c-0.26172,-0.0625 -0.38672,-0.22656 -0.375,-0.5c0,-0.24219 0.10547,-0.42187 0.3125,-0.53125zM5.46875,18.21875" fill="#ffffff" fill-rule="evenodd"></path></g><g clip-path="url(#clip-7)" id="surface23 1"><path d="M10.71875,25.15625c1.29297,-0.01172 2.58203,0 3.875,0.03125c0.43359,0.36328 0.41016,0.69531 -0.0625,1c-1.25,0.04297 -2.5,0.04297 -3.75,0c-0.23437,-0.08594 -0.33594,-0.25391 -0.3125,-0.5c0.01172,-0.09375 0.01953,-0.1875 0.03125,-0.28125c0.08594,-0.07422 0.16016,-0.16016 0.21875,-0.25zM10.71875,25.15625" fill="#ffffff" fill-rule="evenodd"></path></g></g></g></g></svg>