<?xml version="1.0" encoding="UTF-8"?>
<svg xmlns="http://www.w3.org/2000/svg" xmlns:xlink="http://www.w3.org/1999/xlink" width="32px" height="32px" viewBox="0 0 32 32" version="1.1">
<g id="surface1">
<path style=" stroke:none;fill-rule:nonzero;fill:rgb(0%,0%,0%);fill-opacity:1;" d="M 4.25 0.0429688 C 1.875 0.445312 0.164062 2.324219 0.0195312 4.6875 C -0.105469 6.820312 1.269531 8.882812 3.289062 9.585938 C 6.132812 10.582031 9.167969 8.855469 9.78125 5.898438 C 10.25 3.625 8.960938 1.242188 6.804688 0.382812 C 6.007812 0.0625 4.957031 -0.0742188 4.25 0.0429688 Z M 5.863281 1.15625 C 7.230469 1.480469 8.351562 2.585938 8.71875 3.976562 C 8.851562 4.457031 8.84375 5.417969 8.71875 5.90625 C 8.355469 7.289062 7.273438 8.363281 5.90625 8.71875 C 5.40625 8.851562 4.5 8.851562 3.992188 8.71875 C 2.242188 8.269531 1.070312 6.757812 1.0625 4.957031 C 1.0625 4.304688 1.148438 3.894531 1.40625 3.332031 C 1.90625 2.25 2.894531 1.425781 4.03125 1.148438 C 4.46875 1.042969 5.394531 1.042969 5.863281 1.15625 Z M 5.863281 1.15625 "/>
<path style=" stroke:none;fill-rule:nonzero;fill:rgb(0%,0%,0%);fill-opacity:1;" d="M 5.414062 4.304688 L 4.40625 5.304688 L 3.957031 4.867188 C 3.582031 4.511719 3.460938 4.4375 3.300781 4.4375 C 3.050781 4.445312 2.898438 4.542969 2.8125 4.773438 C 2.710938 5.042969 2.863281 5.289062 3.550781 5.949219 C 4.085938 6.46875 4.210938 6.5625 4.382812 6.5625 C 4.5625 6.5625 4.726562 6.425781 5.824219 5.324219 C 7.226562 3.929688 7.28125 3.835938 6.949219 3.5 C 6.605469 3.15625 6.53125 3.199219 5.414062 4.304688 Z M 5.414062 4.304688 "/>
<path style=" stroke:none;fill-rule:nonzero;fill:rgb(0%,0%,0%);fill-opacity:1;" d="M 11.945312 2.820312 C 11.738281 2.898438 11.632812 3.054688 11.632812 3.28125 C 11.632812 3.511719 11.738281 3.664062 11.960938 3.75 C 12.195312 3.835938 22.050781 3.835938 22.28125 3.75 C 22.5 3.667969 22.632812 3.351562 22.550781 3.113281 C 22.417969 2.738281 22.605469 2.75 17.113281 2.757812 C 14.050781 2.757812 12.039062 2.78125 11.945312 2.820312 Z M 11.945312 2.820312 "/>
<path style=" stroke:none;fill-rule:nonzero;fill:rgb(0%,0%,0%);fill-opacity:1;" d="M 12 6.105469 C 11.542969 6.273438 11.492188 6.824219 11.917969 7.050781 C 12.019531 7.105469 14.519531 7.125 21.84375 7.125 L 31.636719 7.125 L 31.820312 6.945312 C 32.042969 6.71875 32.050781 6.507812 31.851562 6.269531 L 31.699219 6.09375 L 21.894531 6.082031 C 16.507812 6.074219 12.050781 6.085938 12 6.105469 Z M 12 6.105469 "/>
<path style=" stroke:none;fill-rule:nonzero;fill:rgb(0%,0%,0%);fill-opacity:1;" d="M 4.21875 11.105469 C 4.117188 11.117188 3.875 11.175781 3.6875 11.226562 C 1.925781 11.726562 0.636719 13.023438 0.148438 14.8125 C -0.0078125 15.375 -0.0078125 16.625 0.148438 17.1875 C 0.738281 19.320312 2.492188 20.789062 4.625 20.917969 C 7.46875 21.09375 9.875 18.835938 9.875 16 C 9.875 13.011719 7.210938 10.707031 4.21875 11.105469 Z M 6.25 12.332031 C 7.960938 12.945312 9 14.613281 8.804688 16.445312 C 8.644531 17.914062 7.65625 19.167969 6.25 19.667969 C 5.632812 19.886719 4.613281 19.9375 4 19.78125 C 2.875 19.488281 1.988281 18.773438 1.460938 17.738281 C 1.1875 17.1875 1.0625 16.65625 1.0625 16 C 1.0625 14.226562 2.175781 12.757812 3.90625 12.238281 C 4.492188 12.0625 5.632812 12.105469 6.25 12.332031 Z M 6.25 12.332031 "/>
<path style=" stroke:none;fill-rule:nonzero;fill:rgb(0%,0%,0%);fill-opacity:1;" d="M 5.414062 15.367188 L 4.40625 16.367188 L 3.957031 15.929688 C 3.582031 15.574219 3.460938 15.5 3.300781 15.5 C 3.050781 15.507812 2.898438 15.605469 2.8125 15.835938 C 2.710938 16.105469 2.863281 16.34375 3.511719 16.980469 C 4.082031 17.539062 4.304688 17.675781 4.542969 17.601562 C 4.605469 17.582031 5.199219 17.023438 5.855469 16.363281 C 7.21875 15 7.28125 14.894531 6.949219 14.5625 C 6.605469 14.21875 6.53125 14.261719 5.414062 15.367188 Z M 5.414062 15.367188 "/>
<path style=" stroke:none;fill-rule:nonzero;fill:rgb(0%,0%,0%);fill-opacity:1;" d="M 11.90625 13.886719 C 11.582031 14.074219 11.523438 14.449219 11.789062 14.695312 L 11.949219 14.84375 L 17.039062 14.863281 C 22.613281 14.882812 22.417969 14.894531 22.550781 14.511719 C 22.632812 14.273438 22.5 13.957031 22.28125 13.875 C 22.039062 13.78125 12.070312 13.792969 11.90625 13.886719 Z M 11.90625 13.886719 "/>
<path style=" stroke:none;fill-rule:nonzero;fill:rgb(0%,0%,0%);fill-opacity:1;" d="M 12 17.167969 C 11.507812 17.351562 11.519531 18.039062 12.019531 18.15625 C 12.09375 18.175781 16.554688 18.179688 21.925781 18.175781 L 31.699219 18.15625 L 31.851562 17.980469 C 32.039062 17.757812 32.039062 17.554688 31.851562 17.332031 L 31.699219 17.15625 L 21.894531 17.144531 C 16.507812 17.136719 12.050781 17.148438 12 17.167969 Z M 12 17.167969 "/>
<path style=" stroke:none;fill-rule:nonzero;fill:rgb(0%,0%,0%);fill-opacity:1;" d="M 4.082031 22.195312 C 3.898438 22.226562 3.550781 22.320312 3.300781 22.40625 C 1.269531 23.117188 -0.113281 25.175781 0.0195312 27.3125 C 0.175781 29.855469 2.144531 31.824219 4.6875 31.980469 C 6.820312 32.105469 8.882812 30.730469 9.585938 28.710938 C 10.582031 25.867188 8.855469 22.832031 5.898438 22.21875 C 5.40625 22.117188 4.605469 22.105469 4.082031 22.195312 Z M 5.90625 23.289062 C 7.242188 23.605469 8.355469 24.710938 8.71875 26.09375 C 8.84375 26.582031 8.851562 27.542969 8.71875 28.023438 C 8.257812 29.761719 6.742188 30.929688 4.957031 30.9375 C 4.304688 30.9375 3.894531 30.851562 3.332031 30.59375 C 2.457031 30.195312 1.804688 29.542969 1.40625 28.675781 C 1.148438 28.105469 1.0625 27.695312 1.0625 27.042969 C 1.070312 24.492188 3.398438 22.6875 5.90625 23.289062 Z M 5.90625 23.289062 "/>
<path style=" stroke:none;fill-rule:nonzero;fill:rgb(0%,0%,0%);fill-opacity:1;" d="M 11.90625 24.949219 C 11.582031 25.136719 11.523438 25.511719 11.789062 25.757812 L 11.949219 25.90625 L 16.957031 25.925781 C 20.5 25.9375 22.039062 25.925781 22.207031 25.875 C 22.59375 25.761719 22.71875 25.28125 22.425781 25.019531 C 22.304688 24.914062 22.019531 24.90625 17.164062 24.894531 C 13.367188 24.882812 12 24.894531 11.90625 24.949219 Z M 11.90625 24.949219 "/>
<path style=" stroke:none;fill-rule:nonzero;fill:rgb(0%,0%,0%);fill-opacity:1;" d="M 11.945312 28.257812 C 11.457031 28.449219 11.550781 29.125 12.074219 29.21875 C 12.1875 29.238281 16.648438 29.242188 21.988281 29.238281 L 31.699219 29.21875 L 31.851562 29.042969 C 32.039062 28.820312 32.039062 28.617188 31.851562 28.394531 L 31.699219 28.21875 L 21.894531 28.207031 C 15.695312 28.199219 12.039062 28.21875 11.945312 28.257812 Z M 11.945312 28.257812 "/>
</g>
</svg>
