<svg xmlns="http://www.w3.org/2000/svg" width="32" height="32"><path style="stroke:none;fill-rule:nonzero;fill: #ffffff;fill-opacity:1" d="M13.559.121c-3.399.496-6.59 2.16-9.086 4.727A15.789 15.789 0 0 0 .84 10.824c-2.625 7.871 1.105 16.367 8.664 19.742a17.49 17.49 0 0 0 3.68 1.13c.808.152 1.199.175 2.894.175 1.832 0 2.027-.008 3-.215 2.64-.558 4.953-1.648 6.945-3.258 4.235-3.406 6.512-8.984 5.856-14.32a16.348 16.348 0 0 0-3.79-8.574c-.675-.793-2.034-2.063-2.202-2.063-.032 0-.047.192-.016.414.024.235.067.977.098 1.657l.054 1.23.512.785c2.242 3.426 2.625 7.344 1.106 11.192-1.274 3.234-4 5.808-7.32 6.914-1.481.488-2.009.566-3.88.566-1.464 0-1.785-.023-2.511-.183a12.592 12.592 0 0 1-4.516-1.993c-.766-.543-2.101-1.863-2.613-2.566a13.3 13.3 0 0 1-2.106-4.41c-.23-.895-.238-.992-.246-2.649-.008-1.511.016-1.824.176-2.59.91-4.257 3.43-7.257 7.512-8.93.879-.358.968-.413 1.27-.816C13.784 1.567 14.8.099 14.8.04c0-.062-.465-.031-1.242.082zm0 0"/><path style="stroke:none;fill-rule:nonzero;fill: #ffffff;fill-opacity:1" d="M18.879 3.305c-.68.672-2.406 2.367-3.84 3.765-1.43 1.403-2.773 2.754-2.984 3-.504.586-.965 1.532-1.145 2.297-.2.914-.125 2.328.16 3.192a5.841 5.841 0 0 0 1.45 2.32c1.105 1.082 2.234 1.562 3.855 1.625 1.191.039 1.914-.098 2.809-.543 1.496-.754 2.55-2.023 3.062-3.68.152-.48.188-.777.188-1.48 0-.946.062-.586-1.512-8.242a316.716 316.716 0 0 1-.656-3.223c-.028-.137-.067-.258-.098-.258-.023 0-.61.555-1.29 1.227zm0 0"/></svg>