<svg version="1.1" xmlns="http://www.w3.org/2000/svg" xmlns:xlink="http://www.w3.org/1999/xlink" width="32px" height="32px" viewBox="0,0,256,256"><g fill="#ffffff" fill-rule="nonzero" stroke="none" stroke-width="1" stroke-linecap="butt" stroke-linejoin="miter" stroke-miterlimit="10" stroke-dasharray="" stroke-dashoffset="0" font-family="none" font-weight="none" font-size="none" text-anchor="none" style="mix-blend-mode: normal"><g transform="translate(-0.02083,0.04064) scale(8,8)"><g id="surface1"><path d="M4.25,0.04297c-2.375,0.40234 -4.08594,2.28125 -4.23047,4.64453c-0.125,2.13281 1.25,4.19531 3.26953,4.89844c2.84375,0.99609 5.87891,-0.73047 6.49219,-3.6875c0.46875,-2.27344 -0.82031,-4.65625 -2.97656,-5.51563c-0.79688,-0.32031 -1.84766,-0.45703 -2.55469,-0.33984zM5.86328,1.15625c1.36719,0.32422 2.48828,1.42969 2.85547,2.82031c0.13281,0.48047 0.125,1.44141 0,1.92969c-0.36328,1.38281 -1.44531,2.45703 -2.8125,2.8125c-0.5,0.13281 -1.40625,0.13281 -1.91406,0c-1.75,-0.44922 -2.92188,-1.96094 -2.92969,-3.76172c0,-0.65234 0.08594,-1.0625 0.34375,-1.625c0.5,-1.08203 1.48828,-1.90625 2.625,-2.18359c0.4375,-0.10547 1.36328,-0.10547 1.83203,0.00781zM5.86328,1.15625"></path><path d="M5.41406,4.30469l-1.00781,1l-0.44922,-0.4375c-0.375,-0.35547 -0.49609,-0.42969 -0.65625,-0.42969c-0.25,0.00781 -0.40234,0.10547 -0.48828,0.33594c-0.10156,0.26953 0.05078,0.51562 0.73828,1.17578c0.53516,0.51953 0.66016,0.61328 0.83203,0.61328c0.17969,0 0.34375,-0.13672 1.44141,-1.23828c1.40234,-1.39453 1.45703,-1.48828 1.125,-1.82422c-0.34375,-0.34375 -0.41797,-0.30078 -1.53516,0.80469zM5.41406,4.30469"></path><path d="M11.94531,2.82031c-0.20703,0.07813 -0.3125,0.23438 -0.3125,0.46094c0,0.23047 0.10547,0.38281 0.32813,0.46875c0.23437,0.08594 10.08984,0.08594 10.32031,0c0.21875,-0.08203 0.35156,-0.39844 0.26953,-0.63672c-0.13281,-0.375 0.05469,-0.36328 -5.4375,-0.35547c-3.0625,0 -5.07422,0.02344 -5.16797,0.0625zM11.94531,2.82031"></path><path d="M12,6.10547c-0.45703,0.16797 -0.50781,0.71875 -0.08203,0.94531c0.10156,0.05469 2.60156,0.07422 9.92578,0.07422h9.79297l0.18359,-0.17969c0.22266,-0.22656 0.23047,-0.4375 0.03125,-0.67578l-0.15234,-0.17578l-9.80469,-0.01172c-5.38672,-0.00781 -9.84375,0.00391 -9.89453,0.02344zM12,6.10547"></path><path d="M4.21875,11.10547c-0.10156,0.01172 -0.34375,0.07031 -0.53125,0.12109c-1.76172,0.5 -3.05078,1.79688 -3.53906,3.58594c-0.15625,0.5625 -0.15625,1.8125 0,2.375c0.58984,2.13281 2.34375,3.60156 4.47656,3.73047c2.84375,0.17578 5.25,-2.08203 5.25,-4.91797c0,-2.98828 -2.66406,-5.29297 -5.65625,-4.89453zM6.25,12.33203c1.71094,0.61328 2.75,2.28125 2.55469,4.11328c-0.16016,1.46875 -1.14844,2.72266 -2.55469,3.22266c-0.61719,0.21875 -1.63672,0.26953 -2.25,0.11328c-1.125,-0.29297 -2.01172,-1.00781 -2.53906,-2.04297c-0.27344,-0.55078 -0.39844,-1.08203 -0.39844,-1.73828c0,-1.77344 1.11328,-3.24219 2.84375,-3.76172c0.58594,-0.17578 1.72656,-0.13281 2.34375,0.09375zM6.25,12.33203"></path><path d="M5.41406,15.36719l-1.00781,1l-0.44922,-0.4375c-0.375,-0.35547 -0.49609,-0.42969 -0.65625,-0.42969c-0.25,0.00781 -0.40234,0.10547 -0.48828,0.33594c-0.10156,0.26953 0.05078,0.50781 0.69922,1.14453c0.57031,0.55859 0.79297,0.69531 1.03125,0.62109c0.0625,-0.01953 0.65625,-0.57812 1.3125,-1.23828c1.36328,-1.36328 1.42578,-1.46875 1.09375,-1.80078c-0.34375,-0.34375 -0.41797,-0.30078 -1.53516,0.80469zM5.41406,15.36719"></path><path d="M11.90625,13.88672c-0.32422,0.1875 -0.38281,0.5625 -0.11719,0.80859l0.16016,0.14844l5.08984,0.01953c5.57422,0.01953 5.37891,0.03125 5.51172,-0.35156c0.08203,-0.23828 -0.05078,-0.55469 -0.26953,-0.63672c-0.24219,-0.09375 -10.21094,-0.08203 -10.375,0.01172zM11.90625,13.88672"></path><path d="M12,17.16797c-0.49219,0.18359 -0.48047,0.87109 0.01953,0.98828c0.07422,0.01953 4.53516,0.02344 9.90625,0.01953l9.77344,-0.01953l0.15234,-0.17578c0.1875,-0.22266 0.1875,-0.42578 0,-0.64844l-0.15234,-0.17578l-9.80469,-0.01172c-5.38672,-0.00781 -9.84375,0.00391 -9.89453,0.02344zM12,17.16797"></path><path d="M4.08203,22.19531c-0.18359,0.03125 -0.53125,0.125 -0.78125,0.21094c-2.03125,0.71094 -3.41406,2.76953 -3.28125,4.90625c0.15625,2.54297 2.125,4.51172 4.66797,4.66797c2.13281,0.125 4.19531,-1.25 4.89844,-3.26953c0.99609,-2.84375 -0.73047,-5.87891 -3.6875,-6.49219c-0.49219,-0.10156 -1.29297,-0.11328 -1.81641,-0.02344zM5.90625,23.28906c1.33594,0.31641 2.44922,1.42188 2.8125,2.80469c0.125,0.48828 0.13281,1.44922 0,1.92969c-0.46094,1.73828 -1.97656,2.90625 -3.76172,2.91406c-0.65234,0 -1.0625,-0.08594 -1.625,-0.34375c-0.875,-0.39844 -1.52734,-1.05078 -1.92578,-1.91797c-0.25781,-0.57031 -0.34375,-0.98047 -0.34375,-1.63281c0.00781,-2.55078 2.33594,-4.35547 4.84375,-3.75391zM5.90625,23.28906"></path><path d="M11.90625,24.94922c-0.32422,0.1875 -0.38281,0.5625 -0.11719,0.80859l0.16016,0.14844l5.00781,0.01953c3.54297,0.01172 5.08203,0 5.25,-0.05078c0.38672,-0.11328 0.51172,-0.59375 0.21875,-0.85547c-0.12109,-0.10547 -0.40625,-0.11328 -5.26172,-0.125c-3.79687,-0.01172 -5.16406,0 -5.25781,0.05469zM11.90625,24.94922"></path><path d="M11.94531,28.25781c-0.48828,0.19141 -0.39453,0.86719 0.12891,0.96094c0.11328,0.01953 4.57422,0.02344 9.91406,0.01953l9.71094,-0.01953l0.15234,-0.17578c0.1875,-0.22266 0.1875,-0.42578 0,-0.64844l-0.15234,-0.17578l-9.80469,-0.01172c-6.19922,-0.00781 -9.85547,0.01172 -9.94922,0.05078zM11.94531,28.25781"></path></g></g></g></svg>