<svg version="1.1" xmlns="http://www.w3.org/2000/svg" xmlns:xlink="http://www.w3.org/1999/xlink" width="32px" height="32px" viewBox="0,0,256,256"><g fill="#ffffff" fill-rule="nonzero" stroke="none" stroke-width="1" stroke-linecap="butt" stroke-linejoin="miter" stroke-miterlimit="10" stroke-dasharray="" stroke-dashoffset="0" font-family="none" font-weight="none" font-size="none" text-anchor="none" style="mix-blend-mode: normal"><g transform="scale(8,8)"><g id="surface1"><path d="M0.78125,3.51172c-0.07031,0.03906 -0.15625,0.12109 -0.19922,0.16797c-0.11328,0.14453 -0.11328,24.49609 0,24.64062c0.04297,0.05469 0.13672,0.12891 0.21094,0.16797c0.19531,0.10547 30.21875,0.10547 30.41406,0c0.07422,-0.03906 0.16797,-0.11328 0.21094,-0.16797c0.11328,-0.14453 0.11328,-24.49609 0,-24.64062c-0.04297,-0.05469 -0.13672,-0.12891 -0.21094,-0.16797c-0.19531,-0.10547 -30.24609,-0.10547 -30.42578,0zM30.5,7.03125v2.59375h-29v-5.1875h29zM30.5,19.09375v8.46875h-29v-16.9375h29zM30.5,19.09375"></path><path d="M22.52344,6.42969c-0.39844,0.17578 -0.45313,0.83984 -0.09375,1.11328c0.05859,0.04297 0.22656,0.07422 0.38281,0.07422c0.15625,0 0.32422,-0.03125 0.38281,-0.07422c0.27344,-0.21094 0.32422,-0.6875 0.09766,-0.94922c-0.14844,-0.17969 -0.53516,-0.26172 -0.76953,-0.16406zM22.52344,6.42969"></path><path d="M25.65625,6.44922c-0.21875,0.12109 -0.28125,0.25 -0.28125,0.58984c0,0.28125 0.02344,0.34766 0.16406,0.45313c0.24219,0.19531 0.66797,0.18359 0.86719,-0.02344c0.125,-0.11719 0.15625,-0.21094 0.15625,-0.44922c-0.00781,-0.33984 -0.08594,-0.48047 -0.33594,-0.58203c-0.21875,-0.08203 -0.41406,-0.07422 -0.57031,0.01172zM25.65625,6.44922"></path><path d="M28.53125,6.44922c-0.21875,0.12109 -0.28125,0.25 -0.28125,0.58984c0,0.28125 0.02344,0.34766 0.16406,0.45313c0.24219,0.19531 0.66797,0.18359 0.86719,-0.02344c0.125,-0.11719 0.15625,-0.21094 0.15625,-0.44922c-0.00781,-0.33984 -0.08594,-0.48047 -0.33594,-0.58203c-0.21875,-0.08203 -0.41406,-0.07422 -0.57031,0.01172zM28.53125,6.44922"></path><path d="M2.41406,6.75781c-0.23437,0.17969 -0.23437,0.55469 0,0.73438l0.16797,0.13281h17.80078l0.14844,-0.15625c0.10156,-0.09375 0.15625,-0.22656 0.15625,-0.34375c0,-0.11719 -0.05469,-0.25 -0.15625,-0.34375l-0.14844,-0.15625h-17.80078zM2.41406,6.75781"></path><path d="M7.94531,13.13281c-0.80859,0.15625 -1.55859,0.73047 -1.92187,1.45313c-0.53516,1.09375 -0.38672,2.25 0.41406,3.11328c1.10547,1.20703 2.89844,1.23047 4.02344,0.05078c0.38281,-0.39844 0.5625,-0.71094 0.69531,-1.23047c0.50781,-1.93359 -1.24219,-3.77734 -3.21094,-3.38672zM9.20703,14.23828c0.64844,0.28516 1.08203,1.01953 1.02344,1.73828c-0.11328,1.49219 -1.91016,2.17969 -2.98047,1.14063c-0.80078,-0.78125 -0.71094,-1.96094 0.19922,-2.69922c0.44922,-0.36328 1.18359,-0.4375 1.75781,-0.17969zM9.20703,14.23828"></path><path d="M15.15625,13.40625c-0.10156,0.09375 -0.15625,0.22656 -0.15625,0.34375c0,0.11719 0.05469,0.25 0.15625,0.34375l0.14844,0.15625h6.45312l0.14844,-0.15625c0.10156,-0.09375 0.15625,-0.22656 0.15625,-0.34375c0,-0.11719 -0.05469,-0.25 -0.15625,-0.34375l-0.14844,-0.15625h-6.45312zM15.15625,13.40625"></path><path d="M15.15625,16.96875c-0.27344,0.26953 -0.13672,0.71875 0.23828,0.8125c0.07422,0.01953 2.76172,0.02344 5.96875,0.01953l5.83594,-0.01953l0.12109,-0.14844c0.16016,-0.20312 0.14844,-0.48437 -0.03906,-0.66406l-0.14844,-0.15625h-11.82812zM15.15625,16.96875"></path><path d="M6.07031,19.125c-0.66406,0.17578 -1.21484,0.50781 -1.76562,1.0625c-0.82813,0.83594 -1.10547,1.57422 -1.16016,3.13281c-0.03906,1.05469 -0.01953,1.24219 0.16797,1.42969c0.125,0.125 0.23047,0.125 5.0625,0.125c4.83203,0 4.9375,0 5.0625,-0.125c0.1875,-0.1875 0.20703,-0.375 0.16797,-1.42969c-0.04297,-1.10156 -0.125,-1.50781 -0.46094,-2.19531c-0.28906,-0.58594 -1.04297,-1.36719 -1.625,-1.67578c-0.75781,-0.39844 -1.13281,-0.44922 -3.16797,-0.44141c-1.58984,0 -1.875,0.01563 -2.28125,0.11719zM10.50781,20.125c0.78516,0.23828 1.40625,0.77344 1.77344,1.51953c0.23828,0.48828 0.33594,1.02344 0.34375,1.77344v0.45703h-8.5v-0.45703c0.00781,-1.71875 0.73828,-2.85547 2.11328,-3.30078c0.30469,-0.09375 0.59375,-0.10938 2.11328,-0.10938c1.57813,-0.00781 1.79688,0.00391 2.15625,0.11719zM10.50781,20.125"></path><path d="M15.13281,20.53906c-0.17578,0.21875 -0.16406,0.41797 0.01563,0.62891l0.15234,0.17578l5.74219,0.01953c3.15625,0.00391 5.83203,0 5.94531,-0.01953c0.42578,-0.07422 0.59766,-0.55469 0.30469,-0.83203l-0.14453,-0.13672h-11.89063zM15.13281,20.53906"></path><path d="M15.33594,23.9375c-0.17188,0.07031 -0.33594,0.30078 -0.33594,0.47656c0,0.07422 0.05469,0.20313 0.13281,0.29688l0.125,0.16406h11.91016l0.13281,-0.14453c0.25,-0.26172 0.14844,-0.65625 -0.19922,-0.79297c-0.21484,-0.07422 -11.57031,-0.08203 -11.76562,0zM15.33594,23.9375"></path></g></g></g></svg>