<svg width="24" height="21" viewBox="0 0 24 21" fill="none" xmlns="http://www.w3.org/2000/svg">
<path d="M21.684 3.64222H18.1281V3.39247C18.1281 3.1219 18.0974 2.85134 18.0256 2.60159C17.6874 1.11348 16.3655 0 14.7874 0H9.22289C7.64475 0 6.31255 1.11348 5.97438 2.60159C5.90265 2.85134 5.8719 3.1219 5.8719 3.39247V3.64222H2.32622C1.04526 3.64222 0 4.69326 0 5.99405V9.46977H5.8719V9.13677C5.8719 8.62686 6.24082 8.2002 6.72246 8.11695C6.7737 8.11695 6.83518 8.09614 6.89667 8.09614C7.40905 8.09614 7.82921 8.48117 7.90094 8.98067H7.91119C7.91119 8.98067 7.92143 9.08474 7.92143 9.13677V9.46977H16.0786V9.13677C16.0786 9.13677 16.0786 9.03271 16.0888 8.99108C16.1605 8.48117 16.5909 8.09614 17.1033 8.09614C17.1648 8.09614 17.2263 8.10654 17.2775 8.11695C17.7592 8.2002 18.1281 8.62686 18.1281 9.13677V9.46977H24V5.99405C24 4.69326 22.965 3.64222 21.684 3.64222ZM7.92143 3.39247C7.92143 3.09068 8.02391 2.82012 8.18787 2.60159C8.42357 2.2894 8.80273 2.08127 9.22289 2.08127H14.7874C15.2075 2.08127 15.5764 2.2894 15.8121 2.60159C15.9761 2.82012 16.0786 3.09068 16.0786 3.39247V3.64222H7.92143V3.39247Z" fill="white"/>
<path d="M18.1281 11.9569C18.1281 12.5292 17.667 12.9975 17.1033 12.9975C16.5397 12.9975 16.0786 12.5292 16.0786 11.9569V11.551H7.92143V11.9569C7.92143 12.5292 7.46029 12.9975 6.89667 12.9975C6.33305 12.9975 5.8719 12.5292 5.8719 11.9569V11.551H0V18.6482C0 19.949 1.04526 21 2.32622 21H21.684C22.965 21 24 19.949 24 18.6482V11.551H18.1281V11.9569Z" fill="white"/>
</svg>
