<svg xmlns="http://www.w3.org/2000/svg" version="1.0" width="682.667" height="682.667" viewBox="0 0 512 512"><path d="m127.2 82.2.3 36.3h257l.3-36.3.2-36.2H127l.2 36.2zm222.7-6.7c4.7 2.4 5.6 8.3 1.9 12.2l-2.1 2.3H162.6l-2.3-2.2c-3.9-3.7-2.9-9.9 2.2-12.6 1.4-.8 29.1-1.1 93.3-1.2 78.2 0 91.7.2 94.1 1.5zM250.5 154.5l-2.5 2.4V213h-76.9c-79.3 0-82 .1-84.1 4-1.3 2.4-1.3 37.6 0 40 1.5 2.8 6.7 4.3 9.8 2.7 4.3-2 5.2-5.1 5.2-18.5V229h146v12.9c0 12.2.1 13.2 2.3 15.7 1.7 2 3.3 2.7 5.7 2.7 2.4 0 4-.7 5.7-2.7 2.2-2.5 2.3-3.5 2.3-15.7V229h146v12.2c0 13.4.9 16.5 5.2 18.5 3.1 1.6 8.3.1 9.8-2.7 1.3-2.4 1.3-37.6 0-40-2.1-3.9-4.8-4-84.1-4H264v-56.1l-2.5-2.4c-1.5-1.6-3.6-2.5-5.5-2.5s-4 .9-5.5 2.5zM39 383.5V466h109V301H39v82.5zm89.6-43.2c3.1 3.6 3.1 7.1-.1 10.2l-2.4 2.5H93.5c-31.2 0-32.6-.1-34.5-2-2.3-2.3-2.7-7.8-.7-10.2 2.8-3.6 4.7-3.8 36.5-3.5l31.4.2 2.4 2.8zm-.4 37.7c2.5 2.6 2.9 3.6 2.4 6.3-1.3 6.7-1.2 6.7-36.9 6.7-31.6 0-32.1 0-34.4-2.2-4.2-3.9-2.7-11.1 2.7-13.1.8-.3 15.4-.6 32.3-.6l30.9-.1 3 3zm0 38c2.5 2.6 2.9 3.6 2.4 6.3-1.3 6.7-1.2 6.7-36.9 6.7-31.6 0-32.1 0-34.4-2.2-3.3-3.1-3.2-9 .3-11.7 2.6-2 3.8-2.1 34.1-2.1h31.5l3 3zM201 383.5V466h110V301H201v82.5zm86.6-45.5c5.5 2.1 7 7.7 3.3 12.4l-2 2.6h-32.7c-32.1 0-32.6 0-34.9-2.2-4.1-3.8-2.6-10.6 2.8-12.7 3.3-1.3 60-1.4 63.5-.1zm1.3 38.5c4.8 2.4 5.6 8.1 1.6 12l-2.4 2.5h-65l-2-2.6c-3.5-4.5-2.5-9.6 2.4-12.2 1.3-.8 12.3-1.1 32.3-1.2 24.7 0 30.8.3 33.1 1.5zm2.2 39.4c2.6 3.2 2.4 7.7-.6 10.6l-2.4 2.5h-64.2l-2.4-2.5c-3.9-3.8-2.9-10.6 1.8-12.5 1.2-.5 16.5-.8 34-.7l31.9.2 1.9 2.4zM364 383.5V466h109V301H364v82.5zm86.9-45c4.6 2.3 5.7 8.9 2.1 12.5-1.9 1.9-3.3 2-34.5 2h-32.6l-2.4-2.5c-1.4-1.3-2.5-3.5-2.5-4.7 0-3 2.6-6.7 5.4-7.8 1.1-.5 15.5-.9 31.9-.9 24.3-.1 30.3.2 32.6 1.4zm2.2 39.4c2.5 3.1 2.4 7.9-.3 10.8l-2.1 2.3h-64.8l-2.4-2.5c-3.4-3.3-3.2-7 .5-10.6l2.9-3 32.2.3 32.1.3 1.9 2.4zm-.7 37.2c3.4 2.7 3.6 8.2.4 11.6l-2.1 2.3h-32.2c-34.9 0-35.6-.1-36.9-5.6-.9-3.4.9-7.9 3.7-9.2 1.4-.7 13.7-1.1 33.3-1.1 30-.1 31.2 0 33.8 2z" fill="#ffffff"/></svg>