<?xml version="1.0" encoding="UTF-8"?>
<svg xmlns="http://www.w3.org/2000/svg" xmlns:xlink="http://www.w3.org/1999/xlink" width="32px" height="32px" viewBox="0 0 32 32" version="1.1">
<g id="surface1">
<path style=" stroke:none;fill-rule:nonzero;fill:rgb(85.09804%,85.09804%,85.09804%);fill-opacity:1;" d="M 7.945312 5.136719 L 7.964844 7.402344 L 24.019531 7.402344 L 24.039062 5.136719 L 24.050781 2.875 L 7.933594 2.875 Z M 21.859375 4.714844 C 22.152344 4.867188 22.207031 5.234375 21.976562 5.480469 L 21.84375 5.621094 L 10.15625 5.621094 L 10.015625 5.484375 C 9.769531 5.253906 9.832031 4.867188 10.152344 4.699219 C 10.238281 4.648438 11.96875 4.628906 15.980469 4.621094 C 20.863281 4.621094 21.707031 4.636719 21.859375 4.714844 Z M 15.648438 9.652344 L 15.492188 9.800781 L 15.492188 13.304688 L 10.6875 13.304688 C 5.734375 13.304688 5.566406 13.3125 5.433594 13.554688 C 5.355469 13.707031 5.355469 15.90625 5.433594 16.054688 C 5.527344 16.230469 5.851562 16.324219 6.046875 16.222656 C 6.316406 16.097656 6.371094 15.90625 6.371094 15.066406 L 6.371094 14.304688 L 15.492188 14.304688 L 15.492188 15.113281 C 15.492188 15.875 15.5 15.9375 15.636719 16.09375 C 15.742188 16.21875 15.84375 16.261719 15.992188 16.261719 C 16.140625 16.261719 16.242188 16.21875 16.347656 16.09375 C 16.484375 15.9375 16.492188 15.875 16.492188 15.113281 L 16.492188 14.304688 L 25.613281 14.304688 L 25.613281 15.066406 C 25.613281 15.90625 25.667969 16.097656 25.9375 16.222656 C 26.132812 16.324219 26.457031 16.230469 26.550781 16.054688 C 26.628906 15.90625 26.628906 13.707031 26.550781 13.554688 C 26.417969 13.3125 26.25 13.304688 21.296875 13.304688 L 16.492188 13.304688 L 16.492188 9.800781 L 16.335938 9.652344 C 16.242188 9.550781 16.109375 9.496094 15.992188 9.496094 C 15.875 9.496094 15.742188 9.550781 15.648438 9.652344 Z M 2.4375 23.957031 L 2.4375 29.109375 L 9.246094 29.109375 L 9.246094 18.804688 L 2.4375 18.804688 Z M 8.035156 21.257812 C 8.226562 21.484375 8.226562 21.703125 8.027344 21.894531 L 7.878906 22.050781 L 5.839844 22.050781 C 3.890625 22.050781 3.804688 22.046875 3.6875 21.925781 C 3.542969 21.78125 3.515625 21.441406 3.640625 21.289062 C 3.816406 21.066406 3.9375 21.050781 5.921875 21.070312 L 7.882812 21.082031 Z M 8.007812 23.613281 C 8.164062 23.777344 8.191406 23.839844 8.160156 24.007812 C 8.078125 24.425781 8.082031 24.425781 5.851562 24.425781 C 3.878906 24.425781 3.847656 24.425781 3.703125 24.289062 C 3.441406 24.042969 3.535156 23.59375 3.875 23.46875 C 3.921875 23.449219 4.835938 23.433594 5.890625 23.433594 L 7.820312 23.425781 Z M 8.007812 25.988281 C 8.164062 26.148438 8.191406 26.210938 8.160156 26.382812 C 8.078125 26.800781 8.082031 26.800781 5.851562 26.800781 C 3.878906 26.800781 3.847656 26.800781 3.703125 26.660156 C 3.5 26.46875 3.503906 26.101562 3.722656 25.929688 C 3.886719 25.804688 3.960938 25.800781 5.851562 25.800781 L 7.820312 25.800781 Z M 12.554688 23.957031 L 12.554688 29.109375 L 19.429688 29.109375 L 19.429688 18.804688 L 12.554688 18.804688 Z M 17.964844 21.113281 C 18.308594 21.246094 18.402344 21.597656 18.171875 21.890625 L 18.046875 22.050781 L 16.003906 22.050781 C 14 22.050781 13.96875 22.050781 13.824219 21.914062 C 13.570312 21.675781 13.660156 21.253906 14 21.121094 C 14.207031 21.039062 17.746094 21.035156 17.964844 21.113281 Z M 18.046875 23.519531 C 18.347656 23.667969 18.398438 24.027344 18.148438 24.269531 L 17.996094 24.425781 L 13.9375 24.425781 L 13.8125 24.261719 C 13.59375 23.980469 13.65625 23.664062 13.960938 23.5 C 14.042969 23.449219 14.730469 23.433594 15.980469 23.425781 C 17.523438 23.425781 17.902344 23.445312 18.046875 23.519531 Z M 18.183594 25.980469 C 18.347656 26.179688 18.335938 26.460938 18.148438 26.644531 L 17.996094 26.800781 L 13.988281 26.800781 L 13.835938 26.644531 C 13.59375 26.40625 13.65625 25.980469 13.949219 25.863281 C 14.023438 25.832031 14.980469 25.8125 16.074219 25.820312 L 18.066406 25.832031 Z M 22.738281 23.957031 L 22.738281 29.109375 L 29.546875 29.109375 L 29.546875 18.804688 L 22.738281 18.804688 Z M 28.167969 21.144531 C 28.453125 21.289062 28.523438 21.703125 28.296875 21.925781 C 28.179688 22.046875 28.09375 22.050781 26.144531 22.050781 L 24.105469 22.050781 L 23.957031 21.894531 C 23.871094 21.8125 23.800781 21.675781 23.800781 21.601562 C 23.800781 21.414062 23.964844 21.183594 24.136719 21.113281 C 24.207031 21.082031 25.105469 21.058594 26.132812 21.058594 C 27.648438 21.050781 28.023438 21.070312 28.167969 21.144531 Z M 28.304688 23.605469 C 28.460938 23.800781 28.453125 24.101562 28.285156 24.28125 L 28.15625 24.425781 L 24.105469 24.425781 L 23.957031 24.269531 C 23.746094 24.0625 23.757812 23.832031 23.988281 23.605469 L 24.167969 23.417969 L 26.179688 23.4375 L 28.1875 23.457031 Z M 28.261719 25.929688 C 28.472656 26.101562 28.484375 26.441406 28.285156 26.65625 L 28.15625 26.800781 L 26.144531 26.800781 C 23.964844 26.800781 23.917969 26.792969 23.839844 26.449219 C 23.78125 26.238281 23.894531 25.957031 24.070312 25.875 C 24.15625 25.832031 24.925781 25.804688 26.148438 25.804688 C 28.023438 25.800781 28.097656 25.804688 28.261719 25.929688 Z M 28.261719 25.929688 "/>
</g>
</svg>
