<svg width="27" height="21" viewBox="0 0 27 21" fill="none" xmlns="http://www.w3.org/2000/svg">
    <g clip-path="url(#clip0_47_1643)">
        <path
            d="M9.74908 15.483H17.2399C17.8788 15.483 18.2644 16.1838 17.9449 16.7288L15.6646 20.5884C15.5214 20.8443 15.246 20.9889 14.9596 20.9889H12.0294C11.743 20.9889 11.4676 20.8331 11.3244 20.5884L9.04406 16.7288C8.7246 16.1727 9.11015 15.483 9.74908 15.483Z"
            fill="#FFFFFF" />
        <path
            d="M21.7454 7.74158C22.3733 7.74158 22.7699 8.4312 22.4504 8.97622L20.5336 12.3353L19.9939 13.2585H6.99508L6.4553 12.3353L4.53854 8.97622C4.21907 8.42007 4.61565 7.74158 5.24355 7.74158H21.7454Z"
            fill="#FFFFFF" />
        <path
            d="M26.8791 1.24576L24.6759 5.1054C24.5327 5.36123 24.2573 5.51695 23.9709 5.51695H3.02965C2.73222 5.51695 2.46784 5.36123 2.32463 5.1054L0.110436 1.24576C-0.209026 0.689619 0.187547 0 0.815454 0H26.1741C26.802 0 27.1986 0.689619 26.8791 1.24576Z"
            fill="#FFFFFF" />
    </g>
    <defs>
        <clipPath id="clip0_47_1643">
            <rect width="27" height="21" fill="white" />
        </clipPath>
    </defs>
</svg>